<?xml version="1.0" encoding="utf-8"?>
<svg xmlns="http://www.w3.org/2000/svg" viewBox="0 0 512 512">
  <path fill="rgb(255,0,0)" stroke-width="0" d="M 366.18 115.211 C 367.488 115.064 368.734 114.993 370.296 115.211 C 372.207 115.479 374.566 116.605 376.881 116.995 C 379.31 117.404 382.7 117.121 384.563 117.544 C 385.832 117.832 385.108 119.23 385.912 119.746 C 386.364 119.788 389.236 119.887 389.718 120.084 C 390.602 120.445 390.686 120.748 391.357 121.474 C 391.95 122.117 392.551 122.376 392.752 123.114 C 392.941 123.807 392.926 124.109 392.825 125.224 C 392.635 127.308 391.845 130.252 391.648 133.467 C 391.516 135.628 391.131 140.22 390.802 141.894 C 390.479 143.542 390.572 144.665 390.536 146.221 C 390.502 147.658 390.38 149.337 390.279 150.45 C 390.24 150.889 390.16 151.507 390.049 151.862 C 389.851 153.024 389.664 154.349 389.58 155.171 C 389.487 156.092 389.635 156.294 389.507 157.353 C 389.285 159.191 388.92 161.099 388.527 164.314 C 388.463 164.842 388.557 164.952 388.499 165.559 C 388.488 165.747 388.242 167.419 388.227 167.631 C 388.189 168.163 387.978 169.637 387.899 170.388 C 387.671 173.568 387.143 176.762 387.107 178.738 C 387.076 180.386 386.391 181.051 386.565 182.031 C 386.244 183.423 384.838 185.992 383.997 187.658 C 383.087 189.464 382.833 191.835 381.815 192.793 C 381.168 193.402 380.696 193.46 379.991 193.644 C 379.185 193.855 378.273 194.097 377.194 193.888 C 375.783 193.614 373.297 192.276 372.208 191.577 C 371.498 191.121 371.195 190.84 370.81 190.3 C 370.512 189.884 370.237 189.381 370.04 188.83 C 369.045 188.994 367.988 189.005 366.503 188.887 C 363.563 188.655 357.585 187.777 354.567 186.555 C 352.231 185.609 350.621 184.353 349.286 182.92 C 348.056 181.599 347.224 179.83 346.679 178.393 C 346.208 177.15 346.114 176.129 345.993 174.826 C 345.858 173.368 345.842 171.765 345.993 170.024 C 346.165 168.054 346.562 165.929 347.091 163.576 C 347.699 160.873 349.017 158.366 349.56 154.659 C 350.277 149.766 350.337 142.151 350.943 136.603 C 351.475 131.731 352.739 126.489 353.799 123.51 C 354.346 121.973 353.895 120.401 354.561 119.569 C 354.54 119.158 355.012 118.633 355.082 118.244 C 355.192 117.639 355.35 117.49 355.659 116.962 C 355.968 116.435 356.258 115.764 356.704 115.389 C 357.124 115.036 357.442 114.807 358.009 114.589 C 358.7 114.323 359.738 114.782 360.632 114.705 C 361.575 114.623 362.439 113.667 363.382 113.92 C 364.286 114.162 365.29 114.782 365.974 115.235 C 366.042 115.227 366.111 115.219 366.18 115.211 Z M 461.154 148.384 C 462.989 148.04 466.439 149.273 468.441 149.355 C 469.993 149.419 471.061 149.027 472.327 149.112 C 473.57 149.196 474.685 149.789 475.97 149.841 C 477.346 149.897 478.924 149.193 480.343 149.355 C 481.758 149.518 483.186 150.058 484.472 150.813 C 485.827 151.607 486.904 152.47 488.237 154.092 C 488.986 155.003 489.85 156.25 490.721 157.63 C 490.803 157.604 490.884 157.582 490.962 157.566 C 491.878 157.376 493.021 157.482 493.869 157.808 C 494.689 158.124 495.432 158.667 495.989 159.444 C 496.634 160.344 494.852 161.885 495.427 162.942 C 495.961 163.922 497.648 164.831 498.042 165.891 C 498.494 167.106 498.809 168.687 498.676 170.374 C 498.545 172.027 498.744 173.331 498.295 175.474 C 498.347 175.793 498.392 176.17 498.438 176.681 C 498.704 179.583 498.298 177.634 498.032 182.302 C 497.899 184.639 498.189 194.341 497.97 196.912 C 498.159 200.206 497.195 201.352 496.952 203.345 C 496.733 205.141 498.261 206.459 497.77 207.506 C 497.35 208.403 495.783 210.372 495.504 210.694 C 495.388 210.829 495.356 210.819 495.262 210.876 C 495.157 210.941 495.295 210.814 495.17 210.923 C 494.996 211.073 493.848 211.889 493.678 212.054 C 493.55 212.178 493 212.871 492.908 212.974 C 492.819 213.074 491.392 211.973 491.238 212.119 C 490.923 212.418 492.469 213.647 491.689 213.871 C 490.88 214.104 489.667 215.401 489.024 215.346 C 488.589 215.308 488.319 215.063 488.055 215.103 C 488.049 215.104 488.043 215.105 488.037 215.106 C 488.015 215.112 487.993 215.118 487.971 215.123 C 487.786 215.184 487.635 215.338 487.511 215.466 C 487.375 215.604 487.464 215.75 487.208 215.95 C 486.607 216.421 484.291 217.611 482.847 218.009 C 481.506 218.379 480.072 218.604 478.85 218.373 C 477.679 218.151 476.367 217.395 475.64 216.738 C 475.351 216.477 475.136 216.19 474.966 215.889 C 474.265 215.84 473.551 215.767 472.814 215.665 C 469.959 215.27 467.187 214.932 463.827 213.479 C 462.05 212.711 459.86 211.477 457.64 210.102 C 457.262 210.737 456.793 211.341 456.288 211.748 C 455.331 212.52 453.856 212.864 452.654 213.08 C 451.515 213.285 450.371 213.367 449.263 213.08 C 448.087 212.777 446.738 212.117 445.81 211.203 C 444.84 210.247 444.615 207.959 443.63 207.387 C 442.761 206.883 441.308 207.652 440.42 207.508 C 439.692 207.39 439.177 207.149 438.603 206.782 C 437.98 206.383 437.314 205.816 436.847 205.146 C 436.351 204.438 435.957 203.632 435.756 202.603 C 435.511 201.341 435.531 199.414 435.756 198 C 435.966 196.685 436.328 195.473 436.968 194.366 C 437.626 193.226 438.787 192.103 439.693 191.277 C 440.482 190.558 441.722 189.886 442.055 189.581 C 442.19 189.458 442.124 189.528 442.237 189.339 C 442.279 189.269 442.341 189.155 442.419 189.006 C 442.349 188.466 442.35 187.885 442.505 187.332 C 442.806 186.26 443.7 184.861 444.625 184.001 C 445.161 183.503 445.848 183.04 446.551 182.699 C 447.245 182.228 448.088 181.687 448.657 181.465 C 449.445 181.158 450.064 181.129 450.837 181.102 C 451.134 181.092 451.453 181.079 451.777 181.081 C 453.3 174.796 453.832 160.387 455.204 155.791 C 456.086 152.835 456.87 151.581 457.997 150.326 C 458.919 149.3 459.759 148.644 461.155 148.383 L 461.154 148.384 Z" style="fill: rgb(166, 209, 48); stroke-width: 2px; paint-order: stroke; stroke: rgba(0, 0, 0, 0.9);"/>
  <g transform="matrix(0.02005, 0, 0, -0.02005, 16.050976, 276.791534)" fill="#000000" stroke="none" style="">
    <path d="M7120 12890 c0 -5 -12 -10 -26 -10 -29 0 -54 -21 -54 -44 0 -9 -4 -16 -10 -16 -5 0 -10 -9 -10 -20 0 -11 -4 -20 -10 -20 -5 0 -10 -13 -10 -30 0 -16 -4 -30 -10 -30 -6 0 -10 -30 -10 -70 0 -40 4 -70 10 -70 6 0 10 -9 10 -20 0 -11 5 -20 10 -20 6 0 10 -8 10 -18 0 -10 9 -24 20 -32 21 -15 28 -70 10 -70 -5 0 -10 -13 -10 -30 0 -16 -4 -30 -10 -30 -5 0 -10 -9 -10 -20 0 -18 -7 -20 -70 -20 -40 0 -70 -4 -70 -10 0 -5 -18 -10 -40 -10 -22 0 -40 -4 -40 -10 0 -5 -9 -10 -20 -10 -11 0 -20 -4 -20 -10 0 -5 -9 -10 -20 -10 -11 0 -20 -4 -20 -10 0 -5 -7 -10 -15 -10 -26 0 -105 -86 -105 -115 0 -14 -4 -25 -10 -25 -5 0 -10 -13 -10 -30 0 -16 -4 -30 -10 -30 -5 0 -10 -13 -10 -30 0 -16 -4 -30 -10 -30 -5 0 -10 -16 -10 -36 0 -19 -6 -42 -14 -50 -17 -16 -66 -19 -66 -4 0 6 -13 10 -30 10 -16 0 -30 -4 -30 -10 0 -6 -47 -10 -120 -10 -73 0 -120 -4 -120 -10 0 -5 -22 -10 -50 -10 -27 0 -50 -4 -50 -10 0 -5 -18 -10 -40 -10 -22 0 -40 -4 -40 -10 0 -5 -9 -10 -20 -10 -11 0 -20 -4 -20 -10 0 -5 -13 -10 -30 -10 -16 0 -30 -4 -30 -10 0 -5 -8 -10 -18 -10 -10 0 -24 -9 -32 -20 -8 -11 -21 -20 -30 -20 -9 0 -22 -9 -30 -20 -8 -11 -20 -20 -27 -20 -19 0 -123 -106 -123 -125 0 -8 -4 -15 -10 -15 -5 0 -10 -13 -10 -30 0 -16 -4 -30 -10 -30 -5 0 -10 -13 -10 -30 0 -16 -4 -30 -10 -30 -5 0 -10 -13 -10 -30 0 -16 -4 -30 -10 -30 -5 0 -10 -13 -10 -30 0 -16 -4 -30 -10 -30 -5 0 -10 -18 -10 -40 0 -22 -4 -40 -10 -40 -5 0 -10 -9 -10 -20 0 -11 -4 -20 -10 -20 -5 0 -10 -13 -10 -30 0 -16 -4 -30 -10 -30 -5 0 -10 -13 -10 -30 0 -16 -4 -30 -10 -30 -5 0 -10 -13 -10 -30 0 -16 -4 -30 -10 -30 -5 0 -10 -13 -10 -30 0 -16 -4 -30 -10 -30 -5 0 -10 -13 -10 -30 0 -16 -4 -30 -10 -30 -5 0 -10 -13 -10 -30 0 -16 -4 -30 -10 -30 -5 0 -10 -18 -10 -40 0 -22 -4 -40 -10 -40 -5 0 -10 -13 -10 -30 0 -16 -4 -30 -10 -30 -5 0 -10 -9 -10 -20 0 -11 -4 -20 -10 -20 -5 0 -10 -13 -10 -30 0 -16 -4 -30 -10 -30 -5 0 -10 -13 -10 -30 0 -16 -4 -30 -10 -30 -5 0 -10 -13 -10 -30 0 -16 -4 -30 -10 -30 -5 0 -10 -18 -10 -40 0 -22 -4 -40 -10 -40 -5 0 -10 -13 -10 -30 0 -16 -4 -30 -10 -30 -5 0 -10 -13 -10 -30 0 -16 -4 -30 -10 -30 -5 0 -10 -13 -10 -30 0 -16 -4 -30 -10 -30 -5 0 -10 -13 -10 -30 0 -16 -4 -30 -10 -30 -5 0 -10 -13 -10 -30 0 -16 -4 -30 -10 -30 -5 0 -10 -13 -10 -30 0 -16 -4 -30 -10 -30 -5 0 -10 -13 -10 -30 0 -16 -4 -30 -10 -30 -5 0 -10 -13 -10 -30 0 -16 -4 -30 -10 -30 -5 0 -10 -13 -10 -30 0 -16 -4 -30 -10 -30 -5 0 -10 -13 -10 -30 0 -16 -4 -30 -10 -30 -5 0 -10 -13 -10 -30 0 -16 -4 -30 -10 -30 -5 0 -10 -13 -10 -30 0 -16 -4 -30 -10 -30 -5 0 -10 -13 -10 -30 0 -16 -4 -30 -10 -30 -5 0 -10 -18 -10 -40 0 -22 -4 -40 -10 -40 -5 0 -10 -13 -10 -30 0 -16 -4 -30 -10 -30 -5 0 -10 -13 -10 -30 0 -16 -4 -30 -10 -30 -5 0 -10 -13 -10 -30 0 -16 -4 -30 -10 -30 -5 0 -10 -13 -10 -30 0 -16 -4 -30 -10 -30 -5 0 -10 -9 -10 -20 0 -11 -4 -20 -10 -20 -5 0 -10 -18 -10 -40 0 -22 -4 -40 -10 -40 -5 0 -10 -13 -10 -30 0 -16 -4 -30 -10 -30 -5 0 -10 -13 -10 -30 0 -16 -4 -30 -10 -30 -5 0 -10 -13 -10 -30 0 -16 -4 -30 -10 -30 -5 0 -10 -13 -10 -30 0 -16 -4 -30 -10 -30 -5 0 -10 -13 -10 -30 0 -16 -4 -30 -10 -30 -5 0 -10 -13 -10 -30 0 -16 -4 -30 -10 -30 -5 0 -10 -13 -10 -30 0 -16 -4 -30 -10 -30 -5 0 -10 -13 -10 -30 0 -16 -4 -30 -10 -30 -5 0 -10 -13 -10 -30 0 -16 -4 -30 -10 -30 -5 0 -10 -13 -10 -30 0 -16 -4 -30 -10 -30 -5 0 -10 -13 -10 -30 0 -16 -4 -30 -10 -30 -5 0 -10 -13 -10 -30 0 -16 -4 -30 -10 -30 -5 0 -10 -13 -10 -30 0 -16 -4 -30 -10 -30 -5 0 -10 -13 -10 -30 0 -16 -4 -30 -10 -30 -5 0 -10 -13 -10 -30 0 -16 -4 -30 -10 -30 -5 0 -10 -18 -10 -40 0 -22 -4 -40 -10 -40 -5 0 -10 -9 -10 -20 0 -11 -4 -20 -10 -20 -5 0 -10 -18 -10 -40 0 -22 -4 -40 -10 -40 -5 0 -10 -13 -10 -30 0 -16 -4 -30 -10 -30 -5 0 -10 -13 -10 -30 0 -16 -4 -30 -10 -30 -5 0 -10 -13 -10 -30 0 -16 -4 -30 -10 -30 -5 0 -10 -13 -10 -30 0 -16 -4 -30 -10 -30 -5 0 -10 -13 -10 -30 0 -16 -4 -30 -10 -30 -5 0 -10 -13 -10 -30 0 -16 -4 -30 -10 -30 -5 0 -10 -13 -10 -30 0 -16 -4 -30 -10 -30 -5 0 -10 -13 -10 -30 0 -16 -4 -30 -10 -30 -5 0 -10 -18 -10 -40 0 -22 -4 -40 -10 -40 -5 0 -10 -13 -10 -30 0 -16 -4 -30 -10 -30 -5 0 -10 -9 -10 -20 0 -11 -4 -20 -10 -20 -5 0 -10 -18 -10 -40 0 -22 -4 -40 -10 -40 -5 0 -10 -13 -10 -30 0 -16 -4 -30 -10 -30 -5 0 -10 -13 -10 -30 0 -16 -4 -30 -10 -30 -5 0 -10 -13 -10 -30 0 -16 -4 -30 -10 -30 -5 0 -10 -13 -10 -30 0 -16 -4 -30 -10 -30 -5 0 -10 -18 -10 -40 0 -22 -4 -40 -10 -40 -5 0 -10 -13 -10 -30 0 -16 -4 -30 -10 -30 -5 0 -10 -13 -10 -30 0 -16 -4 -30 -10 -30 -5 0 -10 -13 -10 -30 0 -16 -4 -30 -10 -30 -5 0 -10 -13 -10 -30 0 -16 -4 -30 -10 -30 -5 0 -10 -13 -10 -30 0 -16 -4 -30 -10 -30 -5 0 -10 -13 -10 -30 0 -16 -4 -30 -10 -30 -6 0 -10 -33 -10 -80 0 -47 4 -80 10 -80 6 0 10 -13 10 -30 0 -16 5 -30 10 -30 6 0 10 -8 10 -18 0 -10 9 -24 20 -32 11 -8 20 -22 20 -32 0 -10 5 -18 10 -18 6 0 10 -7 10 -16 0 -9 14 -29 30 -44 17 -15 30 -33 30 -39 0 -15 106 -121 121 -121 6 0 24 -13 39 -30 15 -16 33 -30 40 -30 7 0 25 -13 40 -30 15 -16 32 -30 37 -30 5 0 18 -8 29 -18 10 -10 36 -25 56 -35 20 -10 43 -23 50 -30 7 -7 96 -55 198 -106 338 -168 723 -280 1093 -316 231 -23 610 -17 745 13 91 19 226 77 266 114 11 10 24 18 29 18 17 0 157 145 157 163 0 9 5 17 10 17 6 0 10 14 10 30 0 17 5 30 10 30 6 0 10 18 10 40 0 22 5 40 10 40 6 0 10 18 10 40 0 22 5 40 10 40 6 0 10 18 10 40 0 22 5 40 10 40 6 0 10 18 10 40 0 22 5 40 10 40 6 0 10 18 10 40 0 22 5 40 10 40 6 0 10 18 10 40 0 22 5 40 10 40 6 0 10 18 10 40 0 22 5 40 10 40 6 0 10 14 10 30 0 17 5 30 10 30 6 0 10 18 10 40 0 22 5 40 10 40 6 0 10 18 10 40 0 22 5 40 10 40 6 0 10 18 10 40 0 22 5 40 10 40 6 0 10 18 10 40 0 22 5 40 10 40 6 0 10 14 10 30 0 17 5 30 10 30 6 0 10 14 10 30 0 17 5 30 10 30 6 0 10 23 10 50 0 28 5 50 10 50 6 0 10 18 10 40 0 22 5 40 10 40 6 0 10 14 10 30 0 17 5 30 10 30 6 0 10 18 10 40 0 22 5 40 10 40 6 0 10 18 10 40 0 22 5 40 10 40 6 0 10 18 10 40 0 22 5 40 10 40 6 0 10 14 10 30 0 17 5 30 10 30 6 0 10 18 10 40 0 22 5 40 10 40 6 0 10 18 10 40 0 22 5 40 10 40 6 0 10 18 10 40 0 22 5 40 10 40 6 0 10 18 10 40 0 22 5 40 10 40 6 0 10 18 10 40 0 22 5 40 10 40 6 0 10 14 10 30 0 17 5 30 10 30 6 0 10 18 10 40 0 22 5 40 10 40 6 0 10 18 10 40 0 22 5 40 10 40 6 0 10 14 10 30 0 17 5 30 10 30 6 0 10 18 10 40 0 22 5 40 10 40 6 0 10 18 10 40 0 22 5 40 10 40 6 0 10 18 10 40 0 22 5 40 10 40 6 0 10 18 10 40 0 22 5 40 10 40 6 0 10 14 10 30 0 17 5 30 10 30 6 0 10 18 10 40 0 22 5 40 10 40 6 0 10 18 10 40 0 22 5 40 10 40 6 0 10 18 10 40 0 22 5 40 10 40 6 0 10 14 10 30 0 17 5 30 10 30 6 0 10 18 10 40 0 22 5 40 10 40 6 0 10 18 10 40 0 22 5 40 10 40 6 0 10 18 10 40 0 22 5 40 10 40 6 0 10 14 10 30 0 17 5 30 10 30 6 0 10 18 10 40 0 22 5 40 10 40 6 0 10 18 10 40 0 22 5 40 10 40 6 0 10 14 10 30 0 17 5 30 10 30 6 0 10 18 10 40 0 22 5 40 10 40 6 0 10 18 10 40 0 22 5 40 10 40 6 0 10 18 10 40 0 22 5 40 10 40 6 0 10 14 10 30 0 17 5 30 10 30 6 0 10 18 10 40 0 22 5 40 10 40 6 0 10 14 10 30 0 17 5 30 10 30 6 0 10 18 10 40 0 22 5 40 10 40 6 0 10 18 10 40 0 22 5 40 10 40 6 0 10 18 10 40 0 22 5 40 10 40 6 0 10 18 10 40 0 22 5 40 10 40 6 0 10 18 10 40 0 22 5 40 10 40 6 0 10 18 10 40 0 22 5 40 10 40 6 0 10 18 10 40 0 22 5 40 10 40 6 0 10 14 10 30 0 17 5 30 10 30 6 0 10 18 10 40 0 22 5 40 10 40 6 0 10 18 10 40 0 22 5 40 10 40 6 0 10 18 10 40 0 22 5 40 10 40 6 0 10 14 10 30 0 17 5 30 10 30 6 0 10 23 10 50 0 28 -4 50 -10 50 -5 0 -10 18 -10 40 0 22 -4 40 -10 40 -5 0 -10 14 -10 30 0 17 -4 30 -10 30 -5 0 -10 9 -10 20 0 11 -4 20 -10 20 -5 0 -10 9 -10 20 0 11 -4 20 -10 20 -5 0 -10 7 -10 16 0 9 -13 29 -30 44 -16 15 -30 33 -30 39 0 15 -166 181 -181 181 -6 0 -28 18 -49 40 -21 22 -45 40 -52 40 -7 0 -20 9 -28 20 -8 11 -21 20 -30 20 -9 0 -22 9 -30 20 -8 11 -22 20 -32 20 -14 0 -18 8 -18 40 0 22 5 40 10 40 6 0 10 18 10 40 0 22 5 40 10 40 6 0 10 14 10 30 0 17 5 30 10 30 6 0 10 37 10 90 0 53 -4 90 -10 90 -5 0 -10 9 -10 20 0 11 -4 20 -10 20 -5 0 -10 8 -10 18 0 10 -9 24 -20 32 -11 8 -20 20 -20 28 0 16 -24 42 -40 42 -21 0 -80 69 -80 95 0 14 5 25 10 25 6 0 10 18 10 40 0 22 5 40 10 40 6 0 10 12 10 26 0 53 6 54 294 54 171 0 266 -4 266 -10 0 -6 27 -10 60 -10 33 0 60 -4 60 -10 0 -5 23 -10 50 -10 28 0 50 -4 50 -10 0 -5 14 -10 30 -10 17 0 30 -4 30 -10 0 -5 14 -10 30 -10 17 0 30 -4 30 -10 0 -5 14 -10 30 -10 17 0 30 -4 30 -10 0 -18 55 -11 70 10 8 11 21 20 28 20 8 0 27 14 42 30 15 17 35 30 44 30 13 0 16 13 16 80 0 47 -4 80 -10 80 -5 0 -10 7 -10 16 0 20 -24 44 -44 44 -9 0 -16 5 -16 10 0 6 -9 10 -20 10 -11 0 -20 5 -20 10 0 6 -9 10 -20 10 -11 0 -20 5 -20 10 0 6 -9 10 -20 10 -11 0 -20 5 -20 10 0 6 -9 10 -20 10 -11 0 -20 5 -20 10 0 6 -9 10 -20 10 -11 0 -20 5 -20 10 0 6 -9 10 -20 10 -11 0 -20 5 -20 10 0 6 -13 10 -30 10 -16 0 -30 5 -30 10 0 6 -13 10 -30 10 -16 0 -30 5 -30 10 0 6 -13 10 -30 10 -16 0 -30 5 -30 10 0 6 -13 10 -30 10 -16 0 -30 5 -30 10 0 6 -22 10 -50 10 -27 0 -50 5 -50 10 0 6 -22 10 -50 10 -27 0 -50 5 -50 10 0 6 -27 10 -60 10 -33 0 -60 4 -60 10 0 6 -27 10 -60 10 -33 0 -60 4 -60 10 0 6 -37 10 -90 10 -53 0 -90 4 -90 10 0 6 -43 10 -110 10 -67 0 -110 4 -110 10 0 6 -27 10 -60 10 -33 0 -60 4 -60 10 0 6 -30 10 -70 10 -40 0 -70 4 -70 10 0 6 -18 10 -40 10 -22 0 -40 -4 -40 -10z"/>
    <path d="M17880 9590 c0 -5 -9 -10 -20 -10 -11 0 -20 -4 -20 -10 0 -5 -7 -10 -15 -10 -20 0 -105 -85 -105 -105 0 -8 -4 -15 -10 -15 -5 0 -10 -9 -10 -20 0 -11 -4 -20 -10 -20 -5 0 -10 -13 -10 -30 0 -16 -4 -30 -10 -30 -6 0 -10 -27 -10 -60 0 -33 -4 -60 -10 -60 -6 0 -10 -33 -10 -80 0 -47 -4 -80 -10 -80 -5 0 -10 -22 -10 -50 0 -27 -4 -50 -10 -50 -5 0 -10 -12 -10 -26 0 -33 -21 -54 -54 -54 -14 0 -26 -4 -26 -10 0 -5 -13 -10 -30 -10 -16 0 -30 -4 -30 -10 0 -5 -9 -10 -20 -10 -11 0 -20 -4 -20 -10 0 -5 -9 -10 -20 -10 -11 0 -20 -4 -20 -10 0 -5 -7 -10 -15 -10 -20 0 -85 -65 -85 -85 0 -8 -4 -15 -10 -15 -5 0 -10 -9 -10 -20 0 -11 -4 -20 -10 -20 -6 0 -10 -30 -10 -70 0 -40 -4 -70 -10 -70 -6 0 -10 -30 -10 -70 0 -40 -4 -70 -10 -70 -6 0 -10 -27 -10 -60 0 -33 -4 -60 -10 -60 -6 0 -10 -27 -10 -60 l0 -60 -50 0 c-27 0 -50 5 -50 10 0 18 -55 11 -70 -10 -8 -11 -22 -20 -32 -20 -10 0 -18 -4 -18 -10 0 -5 -7 -10 -15 -10 -29 0 -65 -47 -65 -85 0 -19 -4 -35 -10 -35 -5 0 -10 -13 -10 -30 0 -16 -4 -30 -10 -30 -5 0 -10 -18 -10 -40 0 -22 -4 -40 -10 -40 -5 0 -10 -18 -10 -40 0 -22 -4 -40 -10 -40 -5 0 -10 -13 -10 -30 0 -16 -4 -30 -10 -30 -5 0 -10 -13 -10 -30 0 -16 -4 -30 -10 -30 -5 0 -10 -18 -10 -40 0 -22 -4 -40 -10 -40 -5 0 -10 -13 -10 -30 0 -16 -4 -30 -10 -30 -5 0 -10 -18 -10 -40 0 -22 -4 -40 -10 -40 -5 0 -10 -18 -10 -40 0 -22 -4 -40 -10 -40 -6 0 -10 -27 -10 -60 0 -33 -4 -60 -10 -60 -6 0 -10 -30 -10 -70 0 -40 -4 -70 -10 -70 -6 0 -10 -27 -10 -60 0 -33 -4 -60 -10 -60 -6 0 -10 -30 -10 -70 0 -40 -4 -70 -10 -70 -6 0 -10 -30 -10 -70 0 -40 -4 -70 -10 -70 -6 0 -10 -33 -10 -80 0 -47 -4 -80 -10 -80 -6 0 -10 -30 -10 -70 0 -40 -4 -70 -10 -70 -6 0 -10 -30 -10 -70 0 -40 -4 -70 -10 -70 -6 0 -10 -33 -10 -80 0 -47 -4 -80 -10 -80 -6 0 -10 -33 -10 -80 0 -47 -4 -80 -10 -80 -6 0 -10 -30 -10 -70 0 -40 -4 -70 -10 -70 -6 0 -10 -33 -10 -80 0 -47 -4 -80 -10 -80 -6 0 -10 -30 -10 -70 0 -40 -4 -70 -10 -70 -6 0 -10 -30 -10 -70 0 -40 -4 -70 -10 -70 -6 0 -10 -30 -10 -70 0 -40 -4 -70 -10 -70 -6 0 -10 -30 -10 -70 0 -40 -4 -70 -10 -70 -6 0 -10 -30 -10 -70 0 -40 -4 -70 -10 -70 -6 0 -10 -30 -10 -70 0 -40 -4 -70 -10 -70 -6 0 -10 -27 -10 -60 0 -33 -4 -60 -10 -60 -6 0 -10 -30 -10 -70 0 -40 -4 -70 -10 -70 -5 0 -10 -18 -10 -40 0 -22 5 -40 10 -40 6 0 10 -7 10 -15 0 -20 45 -65 65 -65 8 0 15 -4 15 -10 0 -6 27 -10 60 -10 33 0 60 -4 60 -10 0 -5 18 -10 40 -10 22 0 40 -4 40 -10 0 -6 27 -10 60 -10 33 0 60 -4 60 -10 0 -5 23 -10 50 -10 28 0 50 -4 50 -10 0 -6 27 -10 60 -10 33 0 60 -4 60 -10 0 -5 23 -10 50 -10 28 0 50 -4 50 -10 0 -6 27 -10 60 -10 33 0 60 -4 60 -10 0 -6 27 -10 60 -10 33 0 60 -4 60 -10 0 -5 23 -10 50 -10 28 0 50 -4 50 -10 0 -5 23 -10 50 -10 28 0 50 -4 50 -10 0 -6 27 -10 60 -10 33 0 60 -4 60 -10 0 -6 27 -10 60 -10 33 0 60 -4 60 -10 0 -6 27 -10 60 -10 33 0 60 -4 60 -10 0 -5 23 -10 50 -10 28 0 50 -4 50 -10 0 -5 23 -10 50 -10 28 0 50 -4 50 -10 0 -6 33 -10 80 -10 47 0 80 4 80 10 0 6 7 10 15 10 20 0 85 65 85 85 0 8 5 15 10 15 6 0 10 9 10 20 0 11 5 20 10 20 6 0 10 9 10 20 0 11 5 20 10 20 6 0 10 9 10 20 0 11 5 20 10 20 6 0 10 14 10 30 0 17 5 30 10 30 6 0 10 9 10 20 0 11 5 20 10 20 6 0 10 9 10 20 0 11 5 20 10 20 6 0 10 14 10 30 0 17 5 30 10 30 6 0 10 9 10 20 0 11 5 20 10 20 6 0 10 9 10 20 0 11 5 20 10 20 6 0 10 9 10 20 0 11 5 20 10 20 6 0 10 9 10 20 0 11 5 20 10 20 6 0 10 14 10 30 0 17 5 30 10 30 6 0 10 9 10 20 0 11 5 20 10 20 6 0 10 33 10 80 0 47 4 80 10 80 6 0 10 37 10 90 0 53 4 90 10 90 6 0 10 40 10 100 0 60 4 100 10 100 6 0 10 40 10 100 0 60 4 100 10 100 6 0 10 40 10 100 0 60 4 100 10 100 6 0 10 37 10 90 0 53 4 90 10 90 6 0 10 43 10 110 0 67 4 110 10 110 6 0 10 40 10 100 0 60 4 100 10 100 6 0 10 43 10 110 0 67 4 110 10 110 6 0 10 40 10 100 0 60 4 100 10 100 6 0 10 33 10 80 0 47 4 80 10 80 6 0 10 43 10 110 0 67 4 110 10 110 6 0 10 37 10 90 0 53 4 90 10 90 6 0 10 40 10 100 0 60 4 100 10 100 6 0 10 47 10 120 0 73 -4 120 -10 120 -5 0 -10 7 -10 15 0 18 -109 130 -117 121 -4 -3 4 -14 15 -25 15 -12 22 -30 22 -55 0 -32 3 -36 26 -36 45 0 54 -20 54 -124 0 -57 -4 -96 -10 -96 -6 0 -10 -43 -10 -110 0 -67 -4 -110 -10 -110 -6 0 -10 -37 -10 -90 0 -53 -4 -90 -10 -90 -6 0 -10 -37 -10 -90 0 -53 -4 -90 -10 -90 -6 0 -10 -37 -10 -90 0 -53 -4 -90 -10 -90 -6 0 -10 -40 -10 -100 0 -60 -4 -100 -10 -100 -6 0 -10 -40 -10 -100 0 -60 -4 -100 -10 -100 -6 0 -10 -43 -10 -110 0 -67 -4 -110 -10 -110 -6 0 -10 -40 -10 -100 0 -60 -4 -100 -10 -100 -6 0 -10 -37 -10 -90 0 -53 -4 -90 -10 -90 -6 0 -10 -40 -10 -100 0 -60 -4 -100 -10 -100 -6 0 -10 -40 -10 -100 0 -60 -4 -100 -10 -100 -6 0 -10 -37 -10 -90 0 -53 -4 -90 -10 -90 -6 0 -10 -40 -10 -100 0 -60 -4 -100 -10 -100 -6 0 -10 -30 -10 -70 l0 -70 -40 0 c-22 0 -40 5 -40 10 0 6 -4 10 -10 10 -5 0 -10 -9 -10 -20 0 -12 7 -20 16 -20 18 0 44 -23 44 -40 0 -6 -11 -22 -25 -35 -18 -19 -35 -25 -70 -25 -25 0 -45 5 -45 10 0 6 -27 10 -60 10 -33 0 -60 4 -60 10 0 6 -22 10 -50 10 -27 0 -50 5 -50 10 0 6 -22 10 -50 10 -27 0 -50 5 -50 10 0 6 -22 10 -50 10 -27 0 -50 5 -50 10 0 6 -27 10 -60 10 -33 0 -60 4 -60 10 0 6 -22 10 -50 10 -27 0 -50 5 -50 10 0 6 -22 10 -50 10 -27 0 -50 5 -50 10 0 6 -22 10 -50 10 -27 0 -50 5 -50 10 0 6 -22 10 -50 10 -27 0 -50 5 -50 10 0 6 -22 10 -50 10 -27 0 -50 5 -50 10 0 6 -27 10 -60 10 -33 0 -60 4 -60 10 0 6 -22 10 -50 10 -27 0 -50 5 -50 10 0 6 -22 10 -50 10 -27 0 -50 5 -50 10 0 6 -30 10 -70 10 -40 0 -70 4 -70 10 0 6 -22 10 -50 10 -27 0 -50 5 -50 10 0 6 -22 10 -50 10 -27 0 -50 5 -50 10 0 6 -13 10 -30 10 -23 0 -30 4 -30 20 0 11 -4 20 -10 20 -5 0 -10 14 -10 30 0 23 5 30 19 30 11 0 21 -6 23 -12 3 -9 9 -8 21 4 20 20 22 44 5 52 -10 5 -10 7 0 12 8 4 12 29 12 75 0 39 4 69 10 69 6 0 10 30 10 70 0 40 4 70 10 70 6 0 10 30 10 70 0 40 4 70 10 70 6 0 10 33 10 80 0 47 4 80 10 80 6 0 10 30 10 70 0 40 4 70 10 70 6 0 10 30 10 70 0 40 4 70 10 70 6 0 10 33 10 80 0 47 4 80 10 80 6 0 10 33 10 80 0 47 4 80 10 80 6 0 10 33 10 80 0 47 4 80 10 80 6 0 10 33 10 80 0 47 4 80 10 80 6 0 10 33 10 80 0 47 4 80 10 80 6 0 10 27 10 60 0 33 4 60 10 60 6 0 10 33 10 80 0 47 4 80 10 80 6 0 10 33 10 80 0 47 4 80 10 80 6 0 10 27 10 60 0 33 4 60 10 60 6 0 10 37 10 90 0 53 4 90 10 90 6 0 10 30 10 70 0 40 4 70 10 70 6 0 10 30 10 70 0 40 4 70 10 70 6 0 10 30 10 70 0 40 4 70 10 70 6 0 10 9 10 20 0 17 7 20 50 20 28 0 50 5 50 10 0 6 -13 10 -30 10 -16 0 -30 5 -30 10 0 6 -13 10 -30 10 -16 0 -30 5 -30 10 0 6 37 10 90 10 53 0 90 -4 90 -10 0 -5 23 -10 50 -10 28 0 50 -4 50 -10 0 -5 23 -10 50 -10 28 0 50 -4 50 -10 0 -6 27 -10 60 -10 33 0 60 -4 60 -10 0 -5 23 -10 50 -10 28 0 50 -4 50 -10 0 -5 23 -10 50 -10 28 0 50 -4 50 -10 0 -5 23 -10 50 -10 28 0 50 -4 50 -10 0 -6 27 -10 60 -10 33 0 60 -4 60 -10 0 -5 23 -10 50 -10 28 0 50 -4 50 -10 0 -6 27 -10 60 -10 33 0 60 -4 60 -10 0 -6 27 -10 60 -10 33 0 60 -4 60 -10 0 -5 18 -10 40 -10 22 0 40 -4 40 -10 0 -5 23 -10 50 -10 28 0 50 -4 50 -10 0 -5 18 -10 40 -10 22 0 40 5 40 10 0 6 -13 10 -30 10 l-30 0 0 70 c0 40 4 70 10 70 6 0 10 37 10 90 0 53 4 90 10 90 6 0 10 40 10 100 0 60 4 100 10 100 6 0 10 33 10 80 0 47 -4 80 -10 80 -5 0 -10 9 -10 20 0 11 -4 20 -10 20 -5 0 -10 7 -10 15 0 20 -125 145 -145 145 -8 0 -15 5 -15 10 0 6 -9 10 -20 10 -11 0 -20 5 -20 10 0 6 -9 10 -20 10 -18 0 -20 7 -20 80 0 47 4 80 10 80 6 0 10 37 10 90 0 53 4 90 10 90 6 0 10 40 10 100 0 60 -4 100 -10 100 -5 0 -10 14 -10 30 0 17 -4 30 -10 30 -5 0 -10 9 -10 20 0 11 -4 20 -10 20 -5 0 -10 7 -10 15 0 20 -85 105 -105 105 -8 0 -15 5 -15 10 0 6 -9 10 -20 10 -11 0 -20 5 -20 10 0 6 -40 10 -100 10 -60 0 -100 -4 -100 -10z m-880 -1530 c0 -11 -4 -20 -10 -20 -5 0 -10 9 -10 20 0 11 5 20 10 20 6 0 10 -9 10 -20z m-40 -290 c0 -16 -4 -30 -10 -30 -5 0 -10 14 -10 30 0 17 5 30 10 30 6 0 10 -13 10 -30z m-60 -450 c0 -47 -4 -80 -10 -80 -6 0 -10 -33 -10 -80 0 -47 -4 -80 -10 -80 -6 0 -10 -30 -10 -70 0 -40 -4 -70 -10 -70 -5 0 -10 -13 -10 -30 0 -27 -3 -30 -30 -30 -16 0 -30 5 -30 10 0 6 9 10 20 10 17 0 20 7 20 40 0 22 -4 40 -10 40 -5 0 -10 5 -10 10 0 6 9 10 20 10 18 0 20 7 20 59 0 38 -4 61 -12 64 -9 3 -6 11 10 24 18 17 22 31 22 77 0 31 5 56 10 56 6 0 10 27 10 60 0 33 4 60 10 60 6 0 10 -33 10 -80z m-60 -490 c0 -16 -4 -30 -10 -30 -5 0 -10 -18 -10 -40 0 -22 -4 -40 -10 -40 -15 0 -12 77 3 83 9 4 9 8 -2 15 -12 8 -12 12 0 26 21 23 29 19 29 -14z m-60 -40 c0 -5 -4 -10 -10 -10 -5 0 -10 5 -10 10 0 6 5 10 10 10 6 0 10 -4 10 -10z m40 -116 c0 -23 -20 -54 -34 -54 -3 0 -6 9 -6 20 0 11 5 20 10 20 6 0 10 9 10 20 0 11 5 20 10 20 6 0 10 -12 10 -26z m-20 -144 c0 -27 -4 -50 -10 -50 -5 0 -10 -22 -10 -50 0 -27 -4 -50 -10 -50 -6 0 -10 27 -10 60 0 33 4 60 10 60 6 0 10 18 10 40 0 22 5 40 10 40 6 0 10 -22 10 -50z m-40 -260 c0 -5 -4 -10 -10 -10 -5 0 -10 5 -10 10 0 6 5 10 10 10 6 0 10 -4 10 -10z m-20 -169 c0 -54 -4 -81 -12 -84 -10 -4 -9 -8 2 -17 11 -9 12 -13 3 -17 -9 -3 -13 -26 -13 -64 0 -33 -4 -59 -10 -59 -6 0 -10 -30 -10 -70 0 -40 -4 -70 -10 -70 -6 0 -10 37 -10 90 0 53 4 90 10 90 6 0 10 26 10 59 0 38 4 61 13 64 9 4 8 8 -3 17 -11 9 -12 13 -2 17 8 3 12 26 12 64 0 33 4 59 10 59 6 0 10 -33 10 -79z m-100 -391 c0 -16 -4 -30 -10 -30 -5 0 -10 14 -10 30 0 17 5 30 10 30 6 0 10 -13 10 -30z m40 -80 c0 -40 -4 -70 -10 -70 -5 0 -10 -18 -10 -40 0 -22 -4 -40 -10 -40 -5 0 -10 18 -10 40 0 22 5 40 10 40 6 0 10 30 10 70 0 40 4 70 10 70 6 0 10 -30 10 -70z m-120 -586 c0 -9 10 -26 23 -37 15 -13 18 -21 10 -24 -7 -3 -13 -18 -13 -34 0 -22 -5 -29 -20 -29 -16 0 -20 7 -20 30 0 17 5 30 10 30 6 0 10 5 10 10 0 6 -9 10 -20 10 -16 0 -20 7 -20 30 0 23 4 30 20 30 12 0 20 -7 20 -16z m180 -74 c0 -6 27 -10 60 -10 33 0 60 -4 60 -10 0 -5 23 -10 50 -10 28 0 50 -4 50 -10 0 -6 27 -10 60 -10 33 0 60 -4 60 -10 0 -5 23 -10 50 -10 28 0 50 -4 50 -10 0 -6 27 -10 60 -10 33 0 60 -4 60 -10 0 -5 18 -10 40 -10 22 0 40 -4 40 -10 0 -6 30 -10 70 -10 40 0 70 -4 70 -10 0 -5 23 -10 50 -10 28 0 50 -4 50 -10 0 -6 27 -10 60 -10 33 0 60 -4 60 -10 0 -5 23 -10 50 -10 28 0 50 -4 50 -10 0 -5 18 -10 40 -10 22 0 40 -4 40 -10 0 -5 23 -10 50 -10 28 0 50 -4 50 -10 0 -6 27 -10 60 -10 33 0 60 -4 60 -10 0 -5 23 -10 50 -10 28 0 50 -4 50 -10 0 -6 29 -10 66 -10 80 0 110 -19 75 -49 -12 -10 -21 -26 -21 -35 0 -9 -4 -16 -10 -16 -5 0 -10 -9 -10 -20 0 -11 -4 -20 -10 -20 -5 0 -10 -9 -10 -20 0 -11 -4 -20 -10 -20 -5 0 -10 -8 -10 -18 0 -10 -9 -24 -20 -32 -11 -8 -20 -22 -20 -32 0 -10 -4 -18 -10 -18 -5 0 -10 -9 -10 -20 0 -11 -4 -20 -10 -20 -5 0 -10 -9 -10 -20 0 -13 -7 -20 -20 -20 -22 0 -29 35 -7 43 6 2 8 8 4 13 -4 5 -12 2 -18 -6 -8 -13 -10 -13 -18 -1 -8 12 -12 11 -28 -4 -13 -13 -14 -20 -5 -23 23 -7 12 -22 -18 -22 -23 0 -30 4 -30 20 0 11 5 20 10 20 6 0 10 9 10 19 0 11 6 21 13 24 6 2 9 8 5 12 -9 10 -38 -19 -38 -39 0 -9 -4 -16 -10 -16 -5 0 -10 5 -10 10 0 6 -13 10 -30 10 -26 0 -30 4 -30 26 0 29 21 54 44 54 9 0 16 5 16 10 0 6 -7 10 -16 10 -9 0 -26 10 -37 23 -13 15 -21 18 -24 10 -3 -7 -13 -13 -24 -13 -10 0 -19 -4 -19 -10 0 -5 14 -10 30 -10 34 0 40 -21 13 -48 -12 -12 -18 -13 -21 -4 -2 6 -12 12 -23 12 -15 0 -19 7 -19 36 0 19 -6 42 -14 50 -20 19 -26 18 -26 -6 0 -17 -7 -20 -40 -20 -22 0 -40 5 -40 10 0 6 9 10 20 10 11 0 20 5 20 10 0 6 -8 10 -18 10 -10 0 -24 9 -32 20 -20 28 -30 25 -30 -10 0 -23 -4 -30 -20 -30 -13 0 -20 7 -20 20 0 15 -7 20 -26 20 -15 0 -35 9 -45 21 -16 19 -20 20 -34 6 -8 -9 -15 -25 -15 -37 0 -39 -50 -68 -64 -37 -5 10 -7 10 -12 0 -10 -23 -24 -13 -24 17 0 17 -4 30 -10 30 -5 0 -10 -9 -10 -20 0 -11 -4 -20 -10 -20 -5 0 -10 7 -10 16 0 20 -24 44 -44 44 -10 0 -16 -9 -16 -26 0 -23 -20 -54 -34 -54 -12 0 -6 58 7 63 7 2 8 8 3 13 -5 5 -11 4 -13 -3 -3 -7 -18 -13 -34 -13 -22 0 -29 -5 -29 -20 0 -11 5 -20 10 -20 6 0 10 -4 10 -10 0 -5 -9 -10 -19 -10 -11 0 -22 -6 -24 -12 -4 -10 -8 -9 -17 2 -9 11 -13 12 -17 3 -6 -17 -31 -16 -49 1 -19 20 -18 26 6 26 26 0 25 6 -7 38 -17 17 -28 22 -31 14 -2 -7 -11 -12 -21 -12 -9 0 -23 -9 -31 -20 -8 -11 -18 -20 -22 -20 -13 0 -9 38 5 43 7 2 8 8 3 13 -5 5 -11 4 -13 -3 -3 -7 -13 -13 -24 -13 -16 0 -19 7 -19 40 0 36 -2 40 -26 40 -29 0 -54 21 -54 44 0 19 -36 22 -44 4 -5 -10 -7 -10 -12 0 -3 6 -14 12 -25 12 -10 0 -19 5 -19 10 0 6 -13 10 -30 10 -23 0 -30 4 -30 20 0 22 -15 27 -24 8 -5 -10 -7 -10 -12 0 -3 7 -25 12 -55 12 -42 0 -49 3 -49 20 0 13 -7 20 -19 20 -11 0 -21 6 -24 13 -2 6 -8 9 -12 5 -5 -5 2 -17 15 -28 13 -11 20 -23 15 -28 -4 -4 -10 -1 -12 6 -3 6 -13 12 -24 12 -14 0 -19 7 -19 30 0 17 5 30 10 30 6 0 10 14 10 30 0 17 5 30 10 30 6 0 10 9 10 20 0 11 5 20 10 20 6 0 10 9 10 20 0 17 7 20 50 20 28 0 50 -4 50 -10z m-200 -100 c0 -16 -4 -30 -10 -30 -5 0 -10 14 -10 30 0 17 5 30 10 30 6 0 10 -13 10 -30z m-40 -120 c0 -5 -4 -10 -10 -10 -5 0 -10 5 -10 10 0 6 5 10 10 10 6 0 10 -4 10 -10z m2000 -60 c0 -5 -4 -10 -10 -10 -5 0 -10 -13 -10 -28 0 -16 -8 -34 -20 -42 -11 -8 -20 -22 -20 -32 0 -10 -4 -18 -10 -18 -5 0 -10 -13 -10 -30 0 -16 -4 -30 -10 -30 -5 0 -10 -9 -10 -20 0 -11 -4 -20 -10 -20 -5 0 -10 -9 -10 -20 0 -11 -4 -20 -10 -20 -5 0 -10 -9 -10 -20 0 -11 -4 -20 -10 -20 -5 0 -10 -9 -10 -20 0 -11 -4 -20 -10 -20 -5 0 -10 -9 -10 -20 0 -11 -4 -20 -10 -20 -5 0 -10 -7 -10 -16 0 -15 -23 -44 -34 -44 -3 0 -6 14 -6 30 0 17 5 30 10 30 6 0 10 9 10 20 0 11 5 20 10 20 6 0 10 9 10 20 0 11 5 20 10 20 6 0 10 9 10 20 0 11 5 20 10 20 6 0 10 9 10 20 0 11 5 20 10 20 6 0 10 9 10 20 0 11 5 20 10 20 6 0 10 9 10 20 0 11 5 20 10 20 6 0 10 8 10 18 0 10 9 24 20 32 11 8 20 25 20 38 0 12 10 34 23 47 24 26 37 31 37 15z m-1580 -46 c0 -19 -28 -49 -38 -40 -3 4 0 12 8 17 11 8 12 12 3 16 -20 8 -15 23 7 23 12 0 20 -7 20 -16z m80 -54 c0 -5 -4 -10 -10 -10 -5 0 -10 5 -10 10 0 6 5 10 10 10 6 0 10 -4 10 -10z m560 -120 c0 -5 -4 -10 -10 -10 -5 0 -10 5 -10 10 0 6 5 10 10 10 6 0 10 -4 10 -10z m420 -80 c0 -5 -4 -10 -10 -10 -5 0 -10 5 -10 10 0 6 5 10 10 10 6 0 10 -4 10 -10z"/>
    <path d="M16840 4910 c0 -5 5 -10 10 -10 6 0 10 5 10 10 0 6 -4 10 -10 10 -5 0 -10 -4 -10 -10z"/>
    <path d="M16920 4890 c0 -5 5 -10 10 -10 6 0 10 5 10 10 0 6 -4 10 -10 10 -5 0 -10 -4 -10 -10z"/>
    <path d="M17220 4850 c0 -5 5 -10 10 -10 6 0 10 5 10 10 0 6 -4 10 -10 10 -5 0 -10 -4 -10 -10z"/>
    <path d="M17280 4830 c0 -5 9 -10 20 -10 11 0 20 5 20 10 0 6 -9 10 -20 10 -11 0 -20 -4 -20 -10z"/>
    <path d="M16680 4810 c0 -5 5 -10 10 -10 6 0 10 5 10 10 0 6 -4 10 -10 10 -5 0 -10 -4 -10 -10z"/>
    <path d="M17080 4750 c0 -5 9 -10 20 -10 11 0 20 5 20 10 0 6 -9 10 -20 10 -11 0 -20 -4 -20 -10z"/>
    <path d="M17920 4710 c0 -5 5 -10 10 -10 6 0 10 5 10 10 0 6 -4 10 -10 10 -5 0 -10 -4 -10 -10z"/>
    <path d="M17660 4610 c0 -5 5 -10 10 -10 6 0 10 5 10 10 0 6 -4 10 -10 10 -5 0 -10 -4 -10 -10z"/>
    <path d="M17720 4610 c0 -5 5 -10 10 -10 6 0 10 5 10 10 0 6 -4 10 -10 10 -5 0 -10 -4 -10 -10z"/>
    <path d="M17120 4590 c0 -5 5 -10 10 -10 6 0 10 5 10 10 0 6 -4 10 -10 10 -5 0 -10 -4 -10 -10z"/>
    <path d="M17800 4570 c0 -5 5 -10 10 -10 6 0 10 5 10 10 0 6 -4 10 -10 10 -5 0 -10 -4 -10 -10z"/>
    <path d="M18040 4420 c0 -13 7 -20 20 -20 13 0 20 7 20 20 0 13 -7 20 -20 20 -13 0 -20 -7 -20 -20z"/>
    <path d="M18160 4410 c0 -5 5 -10 10 -10 6 0 10 5 10 10 0 6 -4 10 -10 10 -5 0 -10 -4 -10 -10z"/>
    <path d="M22380 9390 c0 -6 -33 -10 -80 -10 -47 0 -80 -4 -80 -10 0 -5 -18 -10 -40 -10 -22 0 -40 -4 -40 -10 0 -5 -18 -10 -40 -10 -22 0 -40 -4 -40 -10 0 -5 -18 -10 -40 -10 -22 0 -40 -4 -40 -10 0 -5 -13 -10 -30 -10 -16 0 -30 -4 -30 -10 0 -5 -13 -10 -30 -10 -16 0 -30 -4 -30 -10 0 -5 -9 -10 -20 -10 -11 0 -20 -4 -20 -10 0 -5 -9 -10 -20 -10 -11 0 -20 -4 -20 -10 0 -5 -8 -10 -18 -10 -10 0 -24 -9 -32 -20 -8 -11 -21 -20 -30 -20 -9 0 -22 -9 -30 -20 -8 -11 -20 -20 -27 -20 -17 0 -123 -106 -123 -123 0 -7 -9 -19 -20 -27 -12 -8 -20 -26 -20 -42 0 -15 -4 -28 -10 -28 -5 0 -10 -22 -10 -50 0 -27 -4 -50 -10 -50 -6 0 -10 -60 -10 -160 0 -100 -4 -160 -10 -160 -6 0 -10 -53 -10 -140 0 -87 -4 -140 -10 -140 -6 0 -10 -50 -10 -130 0 -80 -4 -130 -10 -130 -6 0 -10 -57 -10 -150 0 -93 -4 -150 -10 -150 -5 0 -10 -7 -10 -15 0 -20 -45 -65 -65 -65 -8 0 -15 -7 -15 -16 0 -9 -13 -29 -30 -44 -16 -15 -30 -35 -30 -44 0 -9 -4 -16 -10 -16 -5 0 -10 -13 -10 -30 0 -16 -4 -30 -10 -30 -6 0 -10 -50 -10 -130 0 -80 -4 -130 -10 -130 -6 0 -10 -50 -10 -130 0 -80 -4 -130 -10 -130 -6 0 -10 -47 -10 -120 0 -73 -4 -120 -10 -120 -6 0 -10 -53 -10 -140 0 -87 -4 -140 -10 -140 -6 0 -10 -67 -10 -180 0 -113 -4 -180 -10 -180 -6 0 -10 -30 -10 -70 0 -40 -4 -70 -10 -70 -5 0 -10 -7 -10 -16 0 -8 -18 -33 -40 -54 -22 -21 -40 -46 -40 -54 0 -9 -4 -16 -10 -16 -5 0 -10 -9 -10 -20 0 -11 -4 -20 -10 -20 -5 0 -10 -9 -10 -20 0 -11 -4 -20 -10 -20 -6 0 -10 -40 -10 -100 0 -60 -4 -100 -10 -100 -6 0 -10 -50 -10 -129 0 -94 -3 -131 -12 -135 -10 -5 -10 -7 0 -12 14 -7 17 -64 2 -64 -6 0 -10 -30 -10 -70 0 -40 -4 -70 -10 -70 -6 0 -10 -50 -10 -130 0 -80 -4 -130 -10 -130 -6 0 -10 -53 -10 -140 0 -87 -4 -140 -10 -140 -6 0 -10 -47 -10 -120 0 -73 -4 -120 -10 -120 -6 0 -10 -50 -10 -130 0 -80 -4 -130 -10 -130 -6 0 -10 -53 -10 -140 0 -87 4 -140 10 -140 6 0 10 -9 10 -20 0 -11 5 -20 10 -20 6 0 10 -9 10 -20 0 -11 5 -20 10 -20 6 0 10 -9 10 -20 0 -11 5 -20 10 -20 6 0 10 -7 10 -16 0 -8 18 -33 40 -54 22 -21 40 -43 40 -49 0 -16 107 -121 123 -121 7 0 19 -9 27 -20 8 -11 22 -20 32 -20 10 0 18 -4 18 -10 0 -5 9 -10 20 -10 11 0 20 -4 20 -10 0 -5 9 -10 20 -10 11 0 20 -4 20 -10 0 -5 9 -10 20 -10 11 0 20 -4 20 -10 0 -5 9 -10 20 -10 11 0 20 -4 20 -10 0 -5 8 -10 18 -10 10 0 24 -9 32 -20 8 -11 22 -20 32 -20 10 0 18 -4 18 -10 0 -5 14 -10 30 -10 17 0 30 -4 30 -10 0 -5 9 -10 20 -10 11 0 20 -4 20 -10 0 -5 14 -10 30 -10 17 0 30 -4 30 -10 0 -5 -22 -10 -50 -10 -27 0 -50 5 -50 10 0 6 -22 10 -50 10 -27 0 -50 5 -50 10 0 6 -27 10 -60 10 -33 0 -60 4 -60 10 0 6 -27 10 -60 10 -33 0 -60 4 -60 10 0 6 -22 10 -50 10 -27 0 -50 5 -50 10 0 6 -27 10 -60 10 -33 0 -60 4 -60 10 0 6 -27 10 -60 10 -33 0 -60 4 -60 10 0 6 -22 10 -50 10 -27 0 -50 5 -50 10 0 6 -27 10 -60 10 -33 0 -60 4 -60 10 0 6 -22 10 -50 10 -27 0 -50 5 -50 10 0 6 -30 10 -70 10 -40 0 -70 4 -70 10 0 6 -27 10 -60 10 -33 0 -60 4 -60 10 0 6 -22 10 -50 10 -27 0 -50 5 -50 10 0 6 -27 10 -60 10 -33 0 -60 4 -60 10 0 6 -27 10 -60 10 -33 0 -60 4 -60 10 0 6 -22 10 -50 10 -27 0 -50 5 -50 10 0 6 -27 10 -60 10 -33 0 -60 4 -60 10 0 6 -30 10 -70 10 -40 0 -70 4 -70 10 0 6 -22 10 -50 10 -27 0 -50 5 -50 10 0 6 -22 10 -50 10 -27 0 -50 5 -50 10 0 6 -27 10 -60 10 -33 0 -60 4 -60 10 0 6 -27 10 -60 10 -33 0 -60 4 -60 10 0 6 -27 10 -60 10 -33 0 -60 4 -60 10 0 6 -22 10 -50 10 -27 0 -50 5 -50 10 0 6 -27 10 -60 10 -33 0 -60 4 -60 10 0 6 -22 10 -50 10 -27 0 -50 5 -50 10 0 6 -22 10 -50 10 -27 0 -50 5 -50 10 0 6 -30 10 -70 10 -40 0 -70 4 -70 10 0 6 -27 10 -60 10 -33 0 -60 4 -60 10 0 6 -22 10 -50 10 -27 0 -50 5 -50 10 0 6 -27 10 -60 10 -33 0 -60 4 -60 10 0 6 -30 10 -70 10 -40 0 -70 4 -70 10 0 6 -30 10 -70 10 -40 0 -70 4 -70 10 0 6 -30 10 -70 10 -40 0 -70 4 -70 10 0 6 -18 10 -40 10 -22 0 -40 5 -40 10 0 6 -27 10 -60 10 -33 0 -60 4 -60 10 0 6 -18 10 -40 10 -22 0 -40 5 -40 10 0 6 -30 10 -70 10 -40 0 -70 4 -70 10 0 6 -22 10 -50 10 -27 0 -50 5 -50 10 0 6 -27 10 -60 10 -33 0 -60 4 -60 10 0 6 -27 10 -60 10 -33 0 -60 4 -60 10 0 6 -27 10 -60 10 -33 0 -60 4 -60 10 0 6 -22 10 -50 10 -27 0 -50 5 -50 10 0 6 -22 10 -50 10 -27 0 -50 5 -50 10 0 6 -30 10 -70 10 -40 0 -70 4 -70 10 0 6 -30 10 -70 10 -40 0 -70 4 -70 10 0 6 -33 10 -80 10 -47 0 -80 4 -80 10 0 6 -27 10 -60 10 -33 0 -60 4 -60 10 0 6 -27 10 -60 10 -33 0 -60 4 -60 10 0 6 -40 10 -100 10 -60 0 -100 4 -100 10 0 6 -40 10 -100 10 -60 0 -100 4 -100 10 0 6 -40 10 -100 10 -60 0 -100 4 -100 10 0 6 -37 10 -90 10 -53 0 -90 4 -90 10 0 6 -29 10 -68 10 -56 0 -70 -3 -82 -20 -15 -21 -50 -28 -50 -10 0 6 -30 10 -70 10 -40 0 -70 4 -70 10 0 6 -18 10 -40 10 -22 0 -40 5 -40 10 0 6 -30 10 -70 10 -40 0 -70 4 -70 10 0 6 -27 10 -60 10 -33 0 -60 4 -60 10 0 6 -27 10 -60 10 -33 0 -60 4 -60 10 0 6 -22 10 -50 10 -27 0 -50 5 -50 10 0 6 -18 10 -40 10 -22 0 -40 5 -40 10 0 6 -30 10 -70 10 -40 0 -70 4 -70 10 0 6 -22 10 -50 10 -27 0 -50 5 -50 10 0 6 -27 10 -60 10 -33 0 -60 4 -60 10 0 6 -27 10 -60 10 -33 0 -60 4 -60 10 0 6 -27 10 -60 10 -33 0 -60 4 -60 10 0 6 -27 10 -60 10 -33 0 -60 4 -60 10 0 6 -22 10 -50 10 -27 0 -50 5 -50 10 0 6 -22 10 -50 10 -27 0 -50 5 -50 10 0 6 -22 10 -50 10 -27 0 -50 5 -50 10 0 6 -22 10 -50 10 -27 0 -50 5 -50 10 0 6 -18 10 -40 10 -22 0 -40 5 -40 10 0 6 -22 10 -50 10 -27 0 -50 5 -50 10 0 6 -18 10 -40 10 -22 0 -40 5 -40 10 0 6 -33 10 -80 10 -47 0 -80 4 -80 10 0 6 -27 10 -60 10 -33 0 -60 4 -60 10 0 6 -22 10 -50 10 -27 0 -50 5 -50 10 0 6 -18 10 -40 10 -22 0 -40 5 -40 10 0 6 -22 10 -50 10 -27 0 -50 5 -50 10 0 6 -18 10 -40 10 -22 0 -40 5 -40 10 0 6 -27 10 -60 10 -33 0 -60 4 -60 10 0 6 -22 10 -50 10 -27 0 -50 5 -50 10 0 6 -33 10 -80 10 -47 0 -80 4 -80 10 0 6 -40 10 -100 10 -60 0 -100 4 -100 10 0 6 -27 10 -60 10 -33 0 -60 -3 -60 -6 0 -16 33 -34 64 -34 20 0 36 -4 36 -10 0 -5 23 -10 50 -10 28 0 50 -4 50 -10 0 -5 23 -10 50 -10 28 0 50 -4 50 -10 0 -5 14 -10 30 -10 17 0 30 -4 30 -10 0 -5 18 -10 40 -10 22 0 40 -4 40 -10 0 -5 -4 -10 -10 -10 -5 0 -10 -9 -10 -20 0 -13 7 -20 20 -20 11 0 20 -4 20 -10 0 -5 14 -10 30 -10 17 0 30 -4 30 -10 0 -5 14 -10 30 -10 17 0 30 -4 30 -10 0 -5 18 -10 40 -10 22 0 40 -4 40 -10 0 -5 14 -10 30 -10 17 0 30 -4 30 -10 0 -5 18 -10 40 -10 22 0 40 -4 40 -10 0 -5 18 -10 40 -10 22 0 40 -4 40 -10 0 -5 -18 -10 -40 -10 -22 0 -40 5 -40 10 0 6 -18 10 -40 10 -22 0 -40 5 -40 10 0 6 -22 10 -50 10 -27 0 -50 5 -50 10 0 6 -22 10 -50 10 -27 0 -50 5 -50 10 0 6 -30 10 -70 10 -40 0 -70 4 -70 10 0 6 -18 10 -40 10 -22 0 -40 5 -40 10 0 6 -13 10 -30 10 -16 0 -30 5 -30 10 0 6 -13 10 -30 10 -16 0 -30 5 -30 10 0 6 -13 10 -30 10 -16 0 -30 5 -30 10 0 6 -18 10 -40 10 -22 0 -40 5 -40 10 0 6 -22 10 -50 10 -27 0 -50 5 -50 10 0 6 -22 10 -50 10 -27 0 -50 5 -50 10 0 6 -22 10 -50 10 -27 0 -50 5 -50 10 0 6 -22 10 -50 10 -27 0 -50 5 -50 10 0 6 -33 10 -80 10 -47 0 -80 4 -80 10 0 6 -27 10 -60 10 -33 0 -60 4 -60 10 0 6 -22 10 -50 10 -27 0 -50 5 -50 10 0 6 -22 10 -50 10 -27 0 -50 5 -50 10 0 6 -27 10 -60 10 -33 0 -60 4 -60 10 0 6 -27 10 -60 10 -33 0 -60 4 -60 10 0 6 -30 10 -70 10 -40 0 -70 4 -70 10 0 6 -27 10 -60 10 -33 0 -60 4 -60 10 0 6 -30 10 -70 10 -40 0 -70 4 -70 10 0 6 -27 10 -60 10 -33 0 -60 4 -60 10 0 6 -33 10 -80 10 -47 0 -80 4 -80 10 0 6 -22 10 -50 10 -27 0 -50 5 -50 10 0 6 -33 10 -80 10 -47 0 -80 4 -80 10 0 6 -27 10 -60 10 -33 0 -60 4 -60 10 0 6 -30 10 -70 10 -40 0 -70 4 -70 10 0 6 -30 10 -70 10 -40 0 -70 4 -70 10 0 6 -30 10 -70 10 -40 0 -70 4 -70 10 0 6 -33 10 -80 10 -47 0 -80 4 -80 10 0 6 -37 10 -90 10 -53 0 -90 4 -90 10 0 6 -37 10 -90 10 -53 0 -90 4 -90 10 0 6 -33 10 -80 10 -47 0 -80 4 -80 10 0 6 -43 10 -110 10 -67 0 -110 4 -110 10 0 6 -77 10 -210 10 -133 0 -210 -4 -210 -10 0 -5 -9 -10 -20 -10 -12 0 -20 -7 -20 -16 0 -20 24 -44 44 -44 9 0 16 -4 16 -10 0 -5 18 -10 40 -10 22 0 40 -4 40 -10 0 -5 14 -10 30 -10 17 0 30 -4 30 -10 0 -5 9 -10 20 -10 11 0 20 -4 20 -10 0 -5 23 -10 50 -10 28 0 50 -4 50 -10 0 -5 14 -10 30 -10 17 0 30 -4 30 -10 0 -5 14 -10 30 -10 17 0 30 -4 30 -10 0 -5 23 -10 50 -10 28 0 50 -4 50 -10 0 -5 18 -10 40 -10 22 0 40 -4 40 -10 0 -5 14 -10 30 -10 17 0 30 -4 30 -10 0 -5 14 -10 30 -10 17 0 30 -4 30 -10 0 -5 14 -10 30 -10 17 0 30 -4 30 -10 0 -6 27 -10 60 -10 33 0 60 -4 60 -10 0 -5 14 -10 30 -10 17 0 30 -4 30 -10 0 -5 18 -10 40 -10 22 0 40 -4 40 -10 0 -5 18 -10 40 -10 22 0 40 -4 40 -10 0 -5 18 -10 40 -10 22 0 40 -4 40 -10 0 -5 23 -10 50 -10 28 0 50 -4 50 -10 0 -5 18 -10 40 -10 22 0 40 -4 40 -10 0 -5 23 -10 50 -10 28 0 50 -4 50 -10 0 -5 23 -10 50 -10 28 0 50 -4 50 -10 0 -6 27 -10 60 -10 33 0 60 -4 60 -10 0 -6 27 -10 60 -10 33 0 60 -4 60 -10 0 -6 27 -10 60 -10 33 0 60 -4 60 -10 0 -6 30 -10 70 -10 40 0 70 -4 70 -10 0 -5 23 -10 50 -10 28 0 50 -4 50 -10 0 -6 30 -10 70 -10 40 0 70 -4 70 -10 0 -6 30 -10 70 -10 40 0 70 -4 70 -10 0 -6 30 -10 70 -10 40 0 70 -4 70 -10 0 -6 27 -10 60 -10 33 0 60 -4 60 -10 0 -6 33 -10 80 -10 47 0 80 -4 80 -10 0 -6 33 -10 80 -10 47 0 80 -4 80 -10 0 -6 30 -10 70 -10 40 0 70 -4 70 -10 0 -6 33 -10 80 -10 47 0 80 -4 80 -10 0 -6 30 -10 70 -10 40 0 70 -4 70 -10 0 -6 33 -10 80 -10 47 0 80 -4 80 -10 0 -6 33 -10 80 -10 47 0 80 -4 80 -10 0 -6 40 -10 100 -10 60 0 100 -4 100 -10 0 -6 37 -10 90 -10 53 0 90 -4 90 -10 0 -6 33 -10 80 -10 47 0 80 -4 80 -10 0 -6 37 -10 90 -10 53 0 90 -4 90 -10 0 -6 40 -10 100 -10 60 0 100 -4 100 -10 0 -6 57 -10 150 -10 93 0 150 -4 150 -10 0 -6 47 -10 120 -10 73 0 120 4 120 10 0 6 14 10 30 10 23 0 30 4 30 20 0 13 -7 20 -20 20 -11 0 -20 5 -20 10 0 6 -9 10 -20 10 -11 0 -20 5 -20 10 0 6 -13 10 -30 10 -16 0 -30 5 -30 10 0 6 -18 10 -40 10 -22 0 -40 5 -40 10 0 6 -18 10 -40 10 -22 0 -40 5 -40 10 0 6 -18 10 -40 10 -22 0 -40 5 -40 10 0 6 -18 10 -40 10 -22 0 -40 5 -40 10 0 6 -18 10 -40 10 -22 0 -40 5 -40 10 0 6 18 10 40 10 22 0 40 -4 40 -10 0 -5 18 -10 40 -10 22 0 40 -4 40 -10 0 -5 18 -10 40 -10 22 0 40 -4 40 -10 0 -5 23 -10 50 -10 28 0 50 -4 50 -10 0 -5 23 -10 50 -10 28 0 50 -4 50 -10 0 -5 14 -10 30 -10 17 0 30 -4 30 -10 0 -5 23 -10 50 -10 28 0 50 -4 50 -10 0 -5 18 -10 40 -10 22 0 40 -4 40 -10 0 -6 27 -10 60 -10 33 0 60 -4 60 -10 0 -5 18 -10 40 -10 22 0 40 -4 40 -10 0 -5 23 -10 50 -10 28 0 50 -4 50 -10 0 -5 18 -10 40 -10 22 0 40 -4 40 -10 0 -5 23 -10 50 -10 28 0 50 -4 50 -10 0 -5 23 -10 50 -10 28 0 50 -4 50 -10 0 -5 23 -10 50 -10 28 0 50 -4 50 -10 0 -6 27 -10 60 -10 33 0 60 -4 60 -10 0 -5 23 -10 50 -10 28 0 50 -4 50 -10 0 -5 23 -10 50 -10 28 0 50 -4 50 -10 0 -5 23 -10 50 -10 28 0 50 -4 50 -10 0 -5 23 -10 50 -10 28 0 50 -4 50 -10 0 -5 23 -10 50 -10 28 0 50 -4 50 -10 0 -5 23 -10 50 -10 28 0 50 -4 50 -10 0 -5 23 -10 50 -10 28 0 50 -4 50 -10 0 -5 23 -10 50 -10 28 0 50 -4 50 -10 0 -6 27 -10 60 -10 33 0 60 -4 60 -10 0 -6 27 -10 60 -10 33 0 60 -4 60 -10 0 -6 30 -10 70 -10 40 0 70 -4 70 -10 0 -6 30 -10 70 -10 40 0 70 -4 70 -10 0 -6 33 -10 80 -10 47 0 80 -4 80 -10 0 -6 27 -10 60 -10 33 0 60 -4 60 -10 0 -6 30 -10 70 -10 40 0 70 -4 70 -10 0 -6 33 -10 80 -10 47 0 80 -4 80 -10 0 -6 30 -10 70 -10 40 0 70 -4 70 -10 0 -6 30 -10 70 -10 40 0 70 -4 70 -10 0 -6 27 -10 60 -10 33 0 60 -4 60 -10 0 -6 33 -10 80 -10 47 0 80 -4 80 -10 0 -6 33 -10 80 -10 47 0 80 -4 80 -10 0 -6 37 -10 90 -10 53 0 90 -4 90 -10 0 -6 43 -10 110 -10 67 0 110 -4 110 -10 0 -6 40 -10 100 -10 60 0 100 -4 100 -10 0 -6 70 -10 190 -10 120 0 190 -4 190 -10 0 -6 33 -10 80 -10 47 0 80 -4 80 -10 0 -5 18 -10 40 -10 22 0 40 -4 40 -10 0 -6 27 -10 60 -10 33 0 60 -4 60 -10 0 -5 23 -10 50 -10 28 0 50 -4 50 -10 0 -5 23 -10 50 -10 28 0 50 -4 50 -10 0 -5 23 -10 50 -10 28 0 50 -4 50 -10 0 -5 23 -10 50 -10 28 0 50 -4 50 -10 0 -5 23 -10 50 -10 28 0 50 -4 50 -10 0 -5 23 -10 50 -10 28 0 50 -4 50 -10 0 -6 27 -10 60 -10 33 0 60 -4 60 -10 0 -5 23 -10 50 -10 28 0 50 -4 50 -10 0 -6 27 -10 60 -10 33 0 60 -4 60 -10 0 -6 27 -10 60 -10 33 0 60 -4 60 -10 0 -5 23 -10 50 -10 28 0 50 -4 50 -10 0 -5 23 -10 50 -10 28 0 50 -4 50 -10 0 -6 27 -10 60 -10 33 0 60 -4 60 -10 0 -5 23 -10 50 -10 28 0 50 -4 50 -10 0 -6 27 -10 60 -10 33 0 60 -4 60 -10 0 -5 23 -10 50 -10 28 0 50 -4 50 -10 0 -5 23 -10 50 -10 28 0 50 -4 50 -10 0 -6 30 -10 70 -10 40 0 70 -4 70 -10 0 -5 18 -10 40 -10 22 0 40 -4 40 -10 0 -6 27 -10 60 -10 33 0 60 -4 60 -10 0 -6 30 -10 70 -10 40 0 70 -4 70 -10 0 -6 30 -10 70 -10 40 0 70 -4 70 -10 0 -6 27 -10 60 -10 33 0 60 -4 60 -10 0 -6 33 -10 80 -10 47 0 80 -4 80 -10 0 -6 30 -10 70 -10 40 0 70 -4 70 -10 0 -6 33 -10 80 -10 47 0 80 -4 80 -10 0 -6 33 -10 80 -10 47 0 80 -4 80 -10 0 -6 30 -10 70 -10 40 0 70 -4 70 -10 0 -6 33 -10 80 -10 47 0 80 -4 80 -10 0 -6 30 -10 70 -10 40 0 70 -4 70 -10 0 -6 37 -10 90 -10 53 0 90 -4 90 -10 0 -6 40 -10 100 -10 60 0 100 -4 100 -10 0 -6 37 -10 90 -10 53 0 90 -4 90 -10 0 -6 43 -10 110 -10 67 0 110 -4 110 -10 0 -6 37 -10 90 -10 53 0 90 -4 90 -10 0 -6 47 -10 120 -10 73 0 120 -4 120 -10 0 -6 63 -10 170 -10 107 0 170 -4 170 -10 0 -6 37 -10 90 -10 83 0 90 1 90 20 0 16 -7 20 -30 20 -16 0 -30 5 -30 10 0 6 -18 10 -40 10 -22 0 -40 5 -40 10 0 6 -22 10 -50 10 -27 0 -50 5 -50 10 0 6 -22 10 -50 10 -27 0 -50 5 -50 10 0 6 50 10 130 10 80 0 130 4 130 10 0 6 37 10 90 10 53 0 90 4 90 10 0 6 18 10 40 10 22 0 40 5 40 10 0 6 23 10 50 10 28 0 50 5 50 10 0 6 18 10 40 10 22 0 40 5 40 10 0 6 18 10 40 10 22 0 40 5 40 10 0 6 9 10 20 10 11 0 20 5 20 10 0 6 14 10 30 10 17 0 30 5 30 10 0 6 9 10 20 10 11 0 20 5 20 10 0 6 9 10 20 10 11 0 20 5 20 10 0 6 9 10 20 10 11 0 20 5 20 10 0 6 9 10 20 10 11 0 20 5 20 10 0 6 8 10 18 10 10 0 24 9 32 20 8 11 20 20 27 20 19 0 183 166 183 185 0 8 5 15 10 15 6 0 10 8 10 18 0 10 9 24 20 32 12 8 20 26 20 42 0 15 5 28 10 28 6 0 10 23 10 50 0 28 -4 50 -10 50 -5 0 -10 23 -10 50 0 28 5 50 10 50 6 0 10 97 10 270 0 173 4 270 10 270 6 0 10 97 10 270 0 173 4 270 10 270 6 0 10 40 10 100 0 60 -4 100 -10 100 -5 0 -10 9 -10 20 0 11 5 20 10 20 6 0 10 97 10 270 0 173 -4 270 -10 270 -5 0 -10 14 -10 30 0 17 -4 30 -10 30 -5 0 -10 8 -10 18 0 10 -9 24 -20 32 -11 8 -20 21 -20 30 0 9 -9 22 -20 30 -19 14 -20 26 -20 332 0 205 4 318 10 318 15 0 12 97 -2 104 -10 5 -10 7 0 12 9 4 12 77 12 315 0 199 4 309 10 309 6 0 10 43 10 110 0 67 -4 110 -10 110 -5 0 -10 14 -10 30 0 17 -4 30 -10 30 -5 0 -10 9 -10 20 0 11 -4 20 -10 20 -5 0 -10 9 -10 20 0 11 -4 20 -10 20 -5 0 -10 7 -10 16 0 8 -27 42 -60 74 -56 55 -60 62 -60 104 0 26 5 46 10 46 6 0 10 110 10 310 0 200 4 310 10 310 6 0 10 27 10 60 0 33 -4 60 -10 60 -5 0 -10 9 -10 20 0 11 5 20 10 20 6 0 10 73 10 200 0 127 -4 200 -10 200 -5 0 -10 9 -10 20 0 11 -4 20 -10 20 -5 0 -10 9 -10 20 0 11 -4 20 -10 20 -5 0 -10 7 -10 15 0 19 -164 185 -183 185 -7 0 -19 9 -27 20 -8 11 -22 20 -32 20 -10 0 -18 5 -18 10 0 6 -8 10 -18 10 -10 0 -24 9 -32 20 -8 11 -22 20 -32 20 -10 0 -18 5 -18 10 0 6 -13 10 -30 10 -16 0 -30 5 -30 10 0 6 -9 10 -20 10 -11 0 -20 5 -20 10 0 6 -13 10 -30 10 -16 0 -30 5 -30 10 0 6 -13 10 -30 10 -16 0 -30 5 -30 10 0 6 -13 10 -30 10 -16 0 -30 5 -30 10 0 6 -18 10 -40 10 -22 0 -40 5 -40 10 0 6 -27 10 -60 10 -33 0 -60 4 -60 10 0 6 -30 10 -70 10 -40 0 -70 4 -70 10 0 6 -83 10 -230 10 -147 0 -230 -4 -230 -10z m200 -3240 c0 -6 47 -10 120 -10 73 0 120 -4 120 -10 0 -6 30 -10 70 -10 40 0 70 -4 70 -10 0 -5 23 -10 50 -10 28 0 50 -4 50 -10 0 -5 18 -10 40 -10 22 0 40 -4 40 -10 0 -5 18 -10 40 -10 22 0 40 -4 40 -10 0 -5 18 -10 40 -10 22 0 40 -4 40 -10 0 -5 14 -10 30 -10 17 0 30 -4 30 -10 0 -5 14 -10 30 -10 17 0 30 -4 30 -10 0 -5 14 -10 30 -10 17 0 30 -4 30 -10 0 -5 9 -10 20 -10 11 0 20 -4 20 -10 0 -5 14 -10 30 -10 17 0 30 -4 30 -10 0 -5 9 -10 20 -10 11 0 20 -4 20 -10 0 -5 9 -10 20 -10 11 0 20 -4 20 -10 0 -5 9 -10 20 -10 11 0 20 -4 20 -10 0 -5 8 -10 18 -10 10 0 24 -9 32 -20 8 -11 21 -20 30 -20 9 0 22 -9 30 -20 8 -11 20 -20 27 -20 19 0 203 -186 203 -205 0 -8 5 -15 10 -15 6 0 10 -9 10 -20 0 -11 5 -20 10 -20 6 0 10 -13 10 -30 0 -16 5 -30 10 -30 6 0 10 -63 10 -170 0 -107 -4 -170 -10 -170 -5 0 -10 -13 -10 -30 0 -16 5 -30 10 -30 6 0 10 -4 10 -10 0 -5 -7 -10 -16 -10 -18 0 -44 24 -44 40 0 7 -13 25 -30 40 -16 15 -30 33 -30 40 0 15 -25 40 -40 40 -6 0 -29 18 -50 40 -21 22 -46 40 -54 40 -9 0 -16 5 -16 10 0 6 -8 10 -18 10 -10 0 -24 9 -32 20 -8 11 -22 20 -32 20 -10 0 -18 5 -18 10 0 6 -9 10 -20 10 -11 0 -20 5 -20 10 0 6 -9 10 -20 10 -11 0 -20 5 -20 10 0 6 -9 10 -20 10 -11 0 -20 5 -20 10 0 6 -9 10 -20 10 -11 0 -20 5 -20 10 0 6 -9 10 -20 10 -11 0 -20 5 -20 10 0 6 -13 10 -30 10 -16 0 -30 5 -30 10 0 6 -13 10 -30 10 -16 0 -30 5 -30 10 0 6 -9 10 -20 10 -11 0 -20 5 -20 10 0 6 -13 10 -30 10 -16 0 -30 5 -30 10 0 6 -18 10 -40 10 -22 0 -40 5 -40 10 0 6 -13 10 -30 10 -16 0 -30 5 -30 10 0 6 -18 10 -40 10 -22 0 -40 5 -40 10 0 6 -27 10 -60 10 -33 0 -60 4 -60 10 0 6 -22 10 -50 10 -27 0 -50 5 -50 10 0 6 -27 10 -60 10 -33 0 -60 4 -60 10 0 6 -37 10 -90 10 -53 0 -90 4 -90 10 0 6 -93 10 -260 10 -253 0 -260 1 -260 20 0 13 -7 20 -20 20 -17 0 -20 7 -20 39 0 22 5 41 13 44 8 3 5 11 -10 24 -30 26 -29 33 3 33 14 0 33 7 41 16 14 13 14 17 2 26 -11 7 -11 11 -1 15 19 8 14 23 -8 23 -13 0 -20 7 -20 20 0 11 -4 20 -10 20 -5 0 -10 5 -10 10 0 6 9 10 20 10 22 0 27 16 8 23 -8 2 -9 8 -4 13 5 5 11 4 13 -3 3 -7 13 -13 24 -13 14 0 19 7 19 30 0 17 -4 30 -10 30 -5 0 -10 14 -10 30 0 17 5 30 10 30 6 0 10 -9 10 -20 0 -11 5 -20 10 -20 6 0 10 9 10 20 0 13 7 20 20 20 11 0 20 5 20 10 0 6 80 10 220 10 140 0 220 -4 220 -10z m20 -580 c0 -6 37 -10 90 -10 53 0 90 -4 90 -10 0 -6 30 -10 70 -10 40 0 70 -4 70 -10 0 -6 27 -10 60 -10 33 0 60 -4 60 -10 0 -5 18 -10 40 -10 22 0 40 -4 40 -10 0 -5 18 -10 40 -10 22 0 40 -4 40 -10 0 -5 18 -10 40 -10 22 0 40 -4 40 -10 0 -5 9 -10 20 -10 11 0 20 -4 20 -10 0 -5 14 -10 30 -10 17 0 30 -4 30 -10 0 -5 14 -10 30 -10 17 0 30 -4 30 -10 0 -5 14 -10 30 -10 17 0 30 -4 30 -10 0 -5 9 -10 20 -10 11 0 20 -4 20 -10 0 -5 13 -10 28 -10 16 0 34 -8 42 -20 8 -11 22 -20 32 -20 10 0 18 -4 18 -10 0 -5 9 -10 20 -10 11 0 20 -4 20 -10 0 -5 8 -10 18 -10 10 0 24 -9 32 -20 8 -11 21 -20 30 -20 9 0 22 -9 30 -20 8 -11 20 -20 27 -20 19 0 203 -186 203 -205 0 -8 5 -15 10 -15 6 0 10 -13 10 -30 0 -16 5 -30 10 -30 6 0 10 -93 10 -260 0 -167 -4 -260 -10 -260 -6 0 -10 -117 -10 -330 0 -213 -4 -330 -10 -330 -5 0 -10 -9 -10 -20 0 -11 -2 -20 -5 -20 -10 0 -75 69 -75 80 0 16 -148 160 -165 160 -8 0 -15 5 -15 10 0 6 -8 10 -18 10 -10 0 -24 9 -32 20 -8 11 -22 20 -32 20 -10 0 -18 5 -18 10 0 6 -8 10 -18 10 -10 0 -24 9 -32 20 -8 11 -22 20 -32 20 -10 0 -18 5 -18 10 0 6 -13 10 -30 10 -16 0 -30 5 -30 10 0 6 -9 10 -20 10 -11 0 -20 5 -20 10 0 6 -13 10 -30 10 -16 0 -30 5 -30 10 0 6 -9 10 -20 10 -11 0 -20 5 -20 10 0 6 -13 10 -30 10 -16 0 -30 5 -30 10 0 6 -9 10 -20 10 -11 0 -20 5 -20 10 0 6 -13 10 -30 10 -16 0 -30 5 -30 10 0 6 -18 10 -40 10 -22 0 -40 5 -40 10 0 6 -13 10 -30 10 -16 0 -30 5 -30 10 0 6 -18 10 -40 10 -22 0 -40 5 -40 10 0 6 -22 10 -50 10 -27 0 -50 5 -50 10 0 6 -27 10 -60 10 -33 0 -60 4 -60 10 0 6 -27 10 -60 10 -33 0 -60 4 -60 10 0 6 -33 10 -80 10 -47 0 -80 4 -80 10 0 6 -43 10 -110 10 -67 0 -110 4 -110 10 0 6 -73 10 -200 10 -193 0 -200 1 -200 20 0 11 5 20 10 20 6 0 10 14 10 30 0 17 -4 30 -10 30 -6 0 -10 27 -10 60 0 33 -4 60 -10 60 -5 0 -10 9 -10 20 0 11 5 20 10 20 6 0 10 13 10 29 0 16 6 32 13 35 10 5 10 7 0 12 -15 7 -18 64 -3 64 6 0 10 5 10 10 0 6 -9 10 -20 10 -11 0 -20 5 -20 10 0 6 9 10 20 10 16 0 20 7 20 30 0 17 5 30 10 30 6 0 10 9 10 20 0 11 5 20 10 20 6 0 10 23 10 50 0 28 5 50 10 50 6 0 10 5 10 10 0 6 -9 10 -20 10 -17 0 -20 7 -20 40 0 22 5 40 10 40 6 0 10 14 10 30 0 17 5 30 10 30 6 0 10 -13 10 -30 0 -16 5 -30 10 -30 6 0 10 27 10 60 0 33 -4 60 -10 60 -5 0 -10 -9 -10 -20 0 -11 -4 -20 -10 -20 -5 0 -10 9 -10 20 0 11 5 20 10 20 6 0 10 9 10 20 0 11 5 20 10 20 6 0 10 9 10 20 0 11 -4 20 -10 20 -5 0 -10 -4 -10 -10 0 -5 -4 -10 -10 -10 -18 0 -11 35 10 50 11 8 20 22 20 32 0 11 -7 18 -20 18 -11 0 -20 4 -20 8 0 4 9 14 20 22 31 23 26 50 -10 50 -21 0 -30 5 -30 16 0 23 25 44 54 44 14 0 26 5 26 10 0 6 9 10 19 10 11 0 22 6 25 13 5 10 7 10 12 0 9 -20 24 -15 24 7 0 19 7 20 260 20 167 0 260 -4 260 -10z m-540 -1260 c0 -5 -4 -10 -10 -10 -5 0 -10 5 -10 10 0 6 5 10 10 10 6 0 10 -4 10 -10z m80 0 c0 -5 -13 -10 -30 -10 -16 0 -30 5 -30 10 0 6 14 10 30 10 17 0 30 -4 30 -10z m100 0 c0 -5 -18 -10 -40 -10 -22 0 -40 5 -40 10 0 6 18 10 40 10 22 0 40 -4 40 -10z m60 -10 c0 -24 -6 -25 -26 -6 -19 20 -18 26 6 26 13 0 20 -7 20 -20z m200 -10 c0 -6 -37 -10 -90 -10 -53 0 -90 4 -90 10 0 6 37 10 90 10 53 0 90 -4 90 -10z m60 0 c0 -6 30 -10 70 -10 40 0 70 -4 70 -10 0 -6 30 -10 70 -10 40 0 70 -4 70 -10 0 -6 27 -10 60 -10 33 0 60 -4 60 -10 0 -5 18 -10 40 -10 22 0 40 -4 40 -10 0 -5 18 -10 40 -10 22 0 40 -4 40 -10 0 -5 18 -10 40 -10 22 0 40 -4 40 -10 0 -5 9 -10 20 -10 11 0 20 -4 20 -10 0 -5 14 -10 30 -10 17 0 30 -4 30 -10 0 -5 9 -10 20 -10 11 0 20 -4 20 -10 0 -5 14 -10 30 -10 17 0 30 -4 30 -10 0 -5 14 -10 30 -10 17 0 30 -4 30 -10 0 -5 9 -10 20 -10 11 0 20 -4 20 -10 0 -5 9 -10 20 -10 11 0 20 -4 20 -10 0 -5 9 -10 20 -10 11 0 20 -4 20 -10 0 -5 14 -10 30 -10 17 0 30 -4 30 -10 0 -5 8 -10 18 -10 10 0 24 -9 32 -20 8 -11 22 -20 32 -20 10 0 18 -4 18 -10 0 -5 8 -10 18 -10 10 0 24 -9 32 -20 8 -11 22 -20 32 -20 10 0 18 -7 18 -15 0 -9 32 -47 70 -85 39 -38 70 -75 70 -82 0 -8 9 -20 20 -28 14 -10 20 -26 20 -52 0 -21 5 -38 10 -38 17 0 12 -109 -5 -127 -9 -8 -19 -12 -23 -8 -4 4 -1 10 6 12 14 5 17 63 2 63 -5 0 -10 14 -10 30 0 17 -4 30 -10 30 -5 0 -10 9 -10 20 0 11 -4 20 -10 20 -5 0 -10 7 -10 16 0 8 -18 33 -40 54 -22 21 -40 44 -40 50 0 15 -25 40 -40 40 -6 0 -33 23 -60 50 -27 28 -55 50 -62 50 -8 0 -20 9 -28 20 -8 11 -22 20 -32 20 -10 0 -18 5 -18 10 0 6 -8 10 -18 10 -10 0 -24 9 -32 20 -8 11 -26 20 -40 20 -14 0 -32 9 -40 20 -8 11 -22 20 -32 20 -10 0 -18 5 -18 10 0 6 -13 10 -30 10 -16 0 -30 5 -30 10 0 6 -9 10 -20 10 -11 0 -20 5 -20 10 0 6 -18 10 -40 10 -22 0 -40 5 -40 10 0 6 -9 10 -20 10 -11 0 -20 5 -20 10 0 6 -13 10 -30 10 -16 0 -30 5 -30 10 0 6 -13 10 -30 10 -16 0 -30 5 -30 10 0 6 -18 10 -40 10 -22 0 -40 5 -40 10 0 6 -18 10 -40 10 -22 0 -40 5 -40 10 0 6 -18 10 -40 10 -22 0 -40 5 -40 10 0 6 -22 10 -50 10 -27 0 -50 5 -50 10 0 6 -22 10 -50 10 -27 0 -50 5 -50 10 0 6 -27 10 -60 10 -33 0 -60 4 -60 10 0 6 -9 10 -20 10 -11 0 -20 5 -20 10 0 6 9 10 20 10 11 0 20 -4 20 -10z m-160 -60 c0 -6 33 -10 80 -10 47 0 80 -4 80 -10 0 -6 30 -10 70 -10 40 0 70 -4 70 -10 0 -6 27 -10 60 -10 33 0 60 -4 60 -10 0 -5 23 -10 50 -10 28 0 50 -4 50 -10 0 -5 23 -10 50 -10 46 0 67 -12 38 -23 -8 -2 -9 -8 -4 -13 5 -5 11 -4 13 4 6 14 83 17 83 2 0 -5 14 -10 30 -10 17 0 30 -4 30 -10 0 -5 9 -10 20 -10 11 0 20 -4 20 -10 0 -5 14 -10 30 -10 17 0 30 -4 30 -10 0 -5 14 -10 30 -10 27 0 30 -3 30 -30 0 -36 6 -37 33 -7 13 15 21 18 24 10 3 -7 18 -13 34 -13 16 0 29 -4 29 -10 0 -5 14 -10 30 -10 17 0 30 -4 30 -10 0 -5 9 -10 20 -10 11 0 20 -4 20 -10 0 -5 8 -10 18 -10 10 0 24 -9 32 -20 8 -11 21 -20 30 -20 9 0 22 -9 30 -20 8 -11 21 -20 28 -20 8 0 27 -13 42 -30 15 -16 33 -30 39 -30 16 0 161 -147 161 -163 0 -7 9 -19 20 -27 15 -11 20 -26 20 -62 0 -26 -4 -48 -10 -48 -5 0 -10 9 -10 20 0 13 -7 20 -20 20 -22 0 -27 -16 -7 -23 6 -2 9 -8 5 -12 -5 -5 -17 2 -28 15 l-20 23 -20 -23 -20 -23 -20 23 c-11 13 -23 20 -27 16 -4 -4 -1 -11 7 -17 13 -8 13 -10 0 -19 -13 -9 -13 -11 0 -19 12 -8 11 -13 -8 -29 -12 -11 -22 -31 -22 -46 0 -14 -4 -26 -10 -26 -5 0 -10 -13 -10 -30 0 -30 15 -41 22 -18 3 9 10 7 24 -6 13 -14 15 -21 6 -24 -14 -4 -16 -42 -2 -42 6 0 10 5 10 10 0 6 9 10 20 10 11 0 20 -4 20 -10 0 -5 9 -10 20 -10 11 0 20 -4 20 -8 0 -4 -9 -14 -20 -22 -11 -8 -20 -22 -20 -32 0 -22 -7 -23 -27 -2 -14 13 -14 17 -2 24 7 5 10 13 5 17 -5 4 -11 2 -13 -4 -3 -7 -13 -13 -24 -13 -12 0 -19 -7 -19 -20 0 -11 5 -20 10 -20 15 0 12 -29 -4 -46 -21 -20 -59 -17 -76 6 -15 21 -50 28 -50 10 0 -5 7 -10 16 -10 8 0 22 -7 30 -15 14 -13 14 -17 0 -30 -8 -8 -22 -15 -30 -15 -9 0 -16 -4 -16 -10 0 -5 -9 -10 -20 -10 -11 0 -20 -4 -20 -10 0 -5 -13 -10 -30 -10 -16 0 -30 5 -30 10 0 6 -9 10 -20 10 -24 0 -25 6 -6 26 20 19 36 18 57 -7 16 -19 20 -20 34 -6 22 22 19 27 -15 27 -30 0 -41 14 -17 23 7 2 8 8 3 13 -5 5 -11 4 -13 -3 -4 -12 -63 -19 -63 -8 0 10 49 55 60 55 16 0 100 87 100 105 0 8 5 15 10 15 6 0 10 9 10 20 0 13 7 20 20 20 13 0 20 7 20 20 0 11 5 20 10 20 6 0 10 22 10 49 0 30 5 51 13 54 7 2 8 8 3 13 -5 5 -11 4 -13 -3 -10 -27 -23 -11 -23 27 0 22 -4 40 -10 40 -5 0 -10 7 -10 16 0 9 -13 29 -30 44 -16 15 -30 34 -30 42 0 7 -9 20 -20 28 -11 8 -20 22 -20 32 0 10 -7 18 -15 18 -15 0 -65 42 -65 55 0 3 9 5 20 5 24 0 25 6 6 26 -17 16 -46 19 -46 4 0 -18 -35 -11 -50 10 -8 11 -22 20 -32 20 -10 0 -18 5 -18 10 0 6 -13 10 -28 10 -16 0 -34 8 -42 20 -8 11 -22 20 -32 20 -10 0 -18 5 -18 10 0 6 -9 10 -20 10 -11 0 -20 5 -20 10 0 6 -13 10 -30 10 -16 0 -30 5 -30 10 0 6 -13 10 -30 10 -16 0 -30 5 -30 10 0 6 -13 10 -30 10 -16 0 -30 5 -30 10 0 6 -13 10 -30 10 -16 0 -30 5 -30 10 0 6 -13 10 -30 10 -16 0 -30 5 -30 10 0 6 -18 10 -40 10 -22 0 -40 5 -40 10 0 6 -30 10 -70 10 -40 0 -70 4 -70 10 0 6 -18 10 -40 10 -22 0 -40 5 -40 10 0 6 -30 10 -70 10 -40 0 -70 4 -70 10 0 6 -100 10 -280 10 -180 0 -280 -4 -280 -10 0 -6 -30 -10 -70 -10 -40 0 -70 -4 -70 -10 0 -6 -27 -10 -60 -10 -33 0 -60 -4 -60 -10 0 -5 -18 -10 -40 -10 -22 0 -40 -4 -40 -10 0 -5 -13 -10 -30 -10 -16 0 -30 -4 -30 -10 0 -5 -13 -10 -30 -10 -16 0 -30 -4 -30 -10 0 -5 -13 -10 -30 -10 -16 0 -30 -4 -30 -10 0 -5 -9 -10 -20 -10 -11 0 -20 -4 -20 -10 0 -5 -9 -10 -20 -10 -11 0 -20 -4 -20 -10 0 -5 -9 -10 -20 -10 -11 0 -20 -4 -20 -10 0 -5 -9 -10 -20 -10 -11 0 -20 -4 -20 -10 0 -5 -9 -10 -20 -10 -11 0 -20 5 -20 10 0 6 9 10 20 10 11 0 20 5 20 10 0 6 -12 10 -26 10 -14 0 -32 7 -40 15 -14 13 -14 17 0 30 8 8 22 15 30 15 9 0 16 5 16 10 0 6 -13 10 -30 10 -34 0 -37 5 -14 27 13 14 17 14 26 2 7 -11 11 -11 15 -1 2 6 13 12 24 12 10 0 19 5 19 10 0 6 5 10 10 10 6 0 10 -9 10 -20 0 -11 5 -20 10 -20 6 0 10 7 10 15 0 29 47 65 85 65 19 0 35 5 35 10 0 6 14 10 30 10 17 0 30 5 30 10 0 6 23 10 50 10 28 0 50 5 50 10 0 6 23 10 50 10 28 0 50 5 50 10 0 6 40 10 100 10 60 0 100 4 100 10 0 6 90 10 250 10 160 0 250 -4 250 -10z m-296 -142 c5 -10 7 -10 12 0 7 14 64 17 64 2 0 -5 23 -10 50 -10 28 0 50 5 50 10 0 6 14 10 30 10 17 0 30 -4 30 -10 0 -6 43 -10 110 -10 67 0 110 -4 110 -10 0 -6 27 -10 60 -10 33 0 60 -4 60 -10 0 -5 23 -10 50 -10 28 0 50 -4 50 -10 0 -5 23 -10 50 -10 28 0 50 -4 50 -10 0 -5 18 -10 40 -10 22 0 40 -4 40 -10 0 -5 14 -10 30 -10 17 0 30 -4 30 -10 0 -5 14 -10 30 -10 17 0 30 -4 30 -10 0 -5 14 -10 30 -10 17 0 30 -4 30 -10 0 -5 9 -10 20 -10 11 0 20 -4 20 -10 0 -5 14 -10 30 -10 17 0 30 -4 30 -10 0 -5 9 -10 20 -10 11 0 20 -4 20 -10 0 -5 14 -10 30 -10 17 0 30 -4 30 -10 0 -5 8 -10 18 -10 10 0 24 -9 32 -20 8 -11 20 -20 28 -20 7 0 25 -12 39 -26 20 -21 23 -28 12 -34 -7 -5 -10 -13 -5 -17 5 -4 11 -2 13 5 6 16 31 15 49 -2 19 -20 18 -26 -6 -26 -22 0 -27 -15 -7 -24 10 -5 10 -7 0 -12 -23 -10 -14 -24 16 -24 16 0 32 -6 34 -12 4 -10 8 -10 15 1 9 12 13 12 26 -2 9 -8 16 -23 16 -31 0 -9 5 -16 10 -16 6 0 10 -9 10 -20 0 -11 5 -20 10 -20 6 0 10 -30 10 -70 0 -40 -4 -70 -10 -70 -5 0 -10 14 -10 30 0 17 -4 30 -10 30 -5 0 -10 -9 -10 -20 0 -22 -16 -27 -23 -7 -2 7 -8 8 -13 3 -5 -5 -4 -11 4 -13 14 -5 17 -63 2 -63 -5 0 -10 -4 -10 -10 0 -5 9 -10 20 -10 12 0 20 -7 20 -16 0 -20 -29 -49 -38 -39 -4 4 -1 10 6 12 29 11 8 23 -38 23 -27 0 -50 -4 -50 -10 0 -5 5 -10 10 -10 6 0 10 -4 10 -10 0 -5 -22 -10 -50 -10 -27 0 -50 5 -50 10 0 15 -57 12 -64 -2 -5 -10 -7 -10 -12 0 -7 14 -44 16 -44 2 0 -5 -9 -10 -20 -10 -13 0 -20 7 -20 20 0 11 -4 20 -10 20 -5 0 -10 -13 -10 -30 0 -27 -3 -30 -30 -30 -23 0 -30 5 -30 19 0 11 -6 21 -12 24 -8 2 -9 8 -4 13 5 5 11 4 13 -3 5 -15 43 -17 43 -3 0 6 -9 10 -20 10 -11 0 -20 5 -20 10 0 6 -18 10 -40 10 -22 0 -40 5 -40 10 0 6 -9 10 -20 10 -11 0 -20 5 -20 10 0 6 -9 10 -20 10 -13 0 -20 7 -20 20 0 13 -7 20 -20 20 -16 0 -20 7 -20 30 0 17 -4 30 -10 30 -5 0 -10 -9 -10 -20 0 -11 -4 -20 -10 -20 -5 0 -10 9 -10 20 0 11 -4 20 -10 20 -5 0 -10 9 -10 20 0 16 -7 20 -36 20 -41 0 -64 19 -64 52 0 13 -9 30 -20 38 -11 8 -20 22 -20 32 0 10 -4 18 -10 18 -18 0 -11 -32 12 -51 11 -11 18 -22 15 -26 -4 -3 -16 4 -27 18 -17 19 -23 21 -30 9 -5 -8 -13 -11 -17 -6 -4 5 -2 11 5 13 6 3 12 9 12 14 0 14 -38 11 -43 -3 -3 -9 -11 -6 -24 10 -12 12 -32 22 -47 22 -14 0 -26 5 -26 10 0 6 5 10 10 10 6 0 10 5 10 10 0 6 -13 10 -29 10 -16 0 -32 6 -34 13 -4 9 -8 8 -17 -3 -9 -11 -13 -12 -17 -2 -3 7 -24 12 -53 12 -29 0 -50 5 -53 13 -4 9 -8 8 -16 -3 -10 -13 -12 -13 -22 0 -8 11 -12 12 -16 3 -5 -13 -43 -19 -43 -7 0 4 10 15 22 25 11 11 18 22 15 25 -4 4 -20 -8 -37 -26 -17 -18 -34 -30 -38 -26 -3 4 0 11 7 16 12 7 12 11 -2 24 -11 11 -35 16 -81 16 -60 0 -86 -11 -53 -23 6 -2 9 -8 5 -12 -11 -11 -38 21 -38 45 0 12 -6 28 -14 36 -18 17 -63 19 -68 2 -3 -8 -27 10 -58 42 -31 32 -55 50 -58 42 -6 -19 -56 -14 -72 8 -11 15 -26 20 -62 20 l-48 0 0 40 c0 22 -4 40 -10 40 -5 0 -10 -7 -10 -15 0 -25 -46 -65 -75 -65 -18 0 -25 5 -25 19 0 11 6 21 13 24 7 2 8 8 3 13 -5 5 -11 4 -13 -3 -3 -8 -22 -13 -44 -13 -21 0 -39 -4 -39 -10 0 -5 -9 -10 -19 -10 -11 0 -22 -6 -24 -12 -4 -10 -8 -9 -16 2 -8 12 -13 11 -29 -8 -24 -27 -32 -28 -32 -2 0 13 7 20 20 20 11 0 20 5 20 10 0 6 14 10 30 10 17 0 30 5 30 10 0 6 9 10 20 10 11 0 20 5 20 10 0 6 14 10 30 10 17 0 30 5 30 10 0 6 23 10 50 10 28 0 50 5 50 10 0 6 33 10 80 10 47 0 80 4 80 10 0 6 37 10 90 10 53 0 90 4 90 10 0 14 37 12 44 -2z m-924 -138 c0 -5 -4 -10 -10 -10 -5 0 -10 5 -10 10 0 6 5 10 10 10 6 0 10 -4 10 -10z m380 -20 c0 -5 -4 -10 -10 -10 -5 0 -10 5 -10 10 0 6 5 10 10 10 6 0 10 -4 10 -10z m-180 -20 c0 -5 -4 -10 -10 -10 -5 0 -10 5 -10 10 0 6 5 10 10 10 6 0 10 -4 10 -10z m-40 -20 c0 -5 -4 -10 -10 -10 -5 0 -10 5 -10 10 0 6 5 10 10 10 6 0 10 -4 10 -10z m760 -80 c0 -5 -4 -10 -10 -10 -5 0 -10 5 -10 10 0 6 5 10 10 10 6 0 10 -4 10 -10z m1480 -150 c0 -24 -6 -25 -26 -6 -19 20 -18 26 6 26 13 0 20 -7 20 -20z m-940 -30 c0 -5 -4 -10 -10 -10 -5 0 -10 5 -10 10 0 6 5 10 10 10 6 0 10 -4 10 -10z m1320 -180 c0 -5 -4 -10 -10 -10 -5 0 -10 5 -10 10 0 6 5 10 10 10 6 0 10 -4 10 -10z m0 -40 c0 -5 -4 -10 -10 -10 -5 0 -10 5 -10 10 0 6 5 10 10 10 6 0 10 -4 10 -10z m60 0 c0 -5 -4 -10 -10 -10 -5 0 -10 5 -10 10 0 6 5 10 10 10 6 0 10 -4 10 -10z m-380 -40 c0 -5 -4 -10 -10 -10 -5 0 -10 5 -10 10 0 6 5 10 10 10 6 0 10 -4 10 -10z m360 0 c0 -5 -4 -10 -10 -10 -5 0 -10 5 -10 10 0 6 5 10 10 10 6 0 10 -4 10 -10z m-116 -42 c5 -10 7 -10 12 0 9 19 24 14 24 -8 0 -16 -7 -20 -30 -20 -23 0 -30 4 -30 20 0 22 15 27 24 8z m-324 -78 c0 -5 -4 -10 -10 -10 -5 0 -10 5 -10 10 0 6 5 10 10 10 6 0 10 -4 10 -10z m-80 -160 c0 -34 -5 -37 -26 -15 -13 12 -13 17 -2 29 20 23 28 19 28 -14z m-100 -40 c0 -5 -4 -10 -10 -10 -5 0 -10 5 -10 10 0 6 5 10 10 10 6 0 10 -4 10 -10z m140 -16 c0 -3 -6 -12 -14 -20 -21 -21 -46 -17 -46 6 0 16 7 20 30 20 17 0 30 -3 30 -6z m-1920 -24 c0 -5 -4 -10 -10 -10 -5 0 -10 5 -10 10 0 6 5 10 10 10 6 0 10 -4 10 -10z m1840 -10 c0 -17 -7 -20 -40 -20 -22 0 -40 -4 -40 -10 0 -5 -18 -10 -40 -10 -22 0 -40 -4 -40 -10 0 -6 -27 -10 -60 -10 -33 0 -60 4 -60 10 0 6 23 10 50 10 28 0 50 5 50 10 0 6 18 10 40 10 22 0 40 5 40 10 0 6 9 10 20 10 11 0 20 5 20 10 0 6 14 10 30 10 23 0 30 -4 30 -20z"/>
    <path d="M22060 5990 c0 -5 5 -10 10 -10 6 0 10 5 10 10 0 6 -4 10 -10 10 -5 0 -10 -4 -10 -10z"/>
    <path d="M22040 5770 c0 -5 5 -10 10 -10 6 0 10 5 10 10 0 6 -4 10 -10 10 -5 0 -10 -4 -10 -10z"/>
    <path d="M22660 4150 c0 -5 9 -10 20 -10 11 0 20 5 20 10 0 6 -9 10 -20 10 -11 0 -20 -4 -20 -10z"/>
    <path d="M22740 4150 c0 -5 5 -10 10 -10 6 0 10 5 10 10 0 6 -4 10 -10 10 -5 0 -10 -4 -10 -10z"/>
    <path d="M22780 4110 c0 -5 5 -10 10 -10 6 0 10 5 10 10 0 6 -4 10 -10 10 -5 0 -10 -4 -10 -10z"/>
    <path d="M21340 4090 c0 -5 5 -10 10 -10 6 0 10 5 10 10 0 6 -4 10 -10 10 -5 0 -10 -4 -10 -10z"/>
    <path d="M22900 4090 c0 -5 5 -10 10 -10 6 0 10 5 10 10 0 6 -4 10 -10 10 -5 0 -10 -4 -10 -10z"/>
    <path d="M22940 4070 c0 -5 9 -10 20 -10 11 0 20 5 20 10 0 6 -9 10 -20 10 -11 0 -20 -4 -20 -10z"/>
    <path d="M23000 4074 c0 -10 31 -36 37 -31 3 3 -2 13 -10 22 -16 15 -27 19 -27 9z"/>
    <path d="M21260 4050 c0 -5 5 -10 10 -10 6 0 10 5 10 10 0 6 -4 10 -10 10 -5 0 -10 -4 -10 -10z"/>
    <path d="M23060 4050 c0 -5 9 -10 20 -10 11 0 20 5 20 10 0 6 -9 10 -20 10 -11 0 -20 -4 -20 -10z"/>
    <path d="M21360 4030 c0 -5 5 -10 10 -10 6 0 10 5 10 10 0 6 -4 10 -10 10 -5 0 -10 -4 -10 -10z"/>
    <path d="M23180 4010 c0 -5 9 -10 20 -10 11 0 20 5 20 10 0 6 -9 10 -20 10 -11 0 -20 -4 -20 -10z"/>
    <path d="M21260 3990 c0 -5 9 -10 20 -10 11 0 20 5 20 10 0 6 -9 10 -20 10 -11 0 -20 -4 -20 -10z"/>
    <path d="M23260 3984 c0 -20 24 -44 44 -44 9 0 16 -4 16 -10 0 -5 9 -10 20 -10 11 0 20 5 20 10 0 6 -9 10 -20 10 -11 0 -20 5 -20 10 0 6 -9 10 -20 10 -13 0 -20 7 -20 20 0 11 -4 20 -10 20 -5 0 -10 -7 -10 -16z"/>
    <path d="M23380 3910 c0 -5 5 -10 10 -10 6 0 10 5 10 10 0 6 -4 10 -10 10 -5 0 -10 -4 -10 -10z"/>
    <path d="M23580 3792 c0 -4 9 -14 20 -22 11 -8 20 -22 20 -32 0 -10 5 -18 10 -18 18 0 10 31 -15 55 -25 26 -35 31 -35 17z"/>
    <path d="M23720 3774 c0 -7 27 -34 34 -34 3 0 6 9 6 20 0 13 -7 20 -20 20 -11 0 -20 -3 -20 -6z"/>
    <path d="M23780 3734 c0 -10 31 -36 37 -31 3 3 -2 13 -10 22 -16 15 -27 19 -27 9z"/>
    <path d="M23700 3630 c0 -5 5 -10 10 -10 6 0 10 5 10 10 0 6 -4 10 -10 10 -5 0 -10 -4 -10 -10z"/>
    <path d="M23740 3540 c0 -11 5 -20 10 -20 6 0 10 9 10 20 0 11 -4 20 -10 20 -5 0 -10 -9 -10 -20z"/>
    <path d="M23751 3304 c-18 -21 -6 -30 14 -11 8 9 15 18 15 21 0 11 -15 5 -29 -10z"/>
    <path d="M23621 3194 c-12 -14 -21 -28 -18 -31 6 -5 57 41 57 52 0 11 -16 3 -39 -21z"/>
    <path d="M23640 3110 c0 -5 5 -10 10 -10 6 0 10 5 10 10 0 6 -4 10 -10 10 -5 0 -10 -4 -10 -10z"/>
    <path d="M22000 4050 c0 -5 5 -10 10 -10 6 0 10 5 10 10 0 6 -4 10 -10 10 -5 0 -10 -4 -10 -10z"/>
    <path d="M22480 4030 c0 -5 5 -10 10 -10 6 0 10 5 10 10 0 6 -4 10 -10 10 -5 0 -10 -4 -10 -10z"/>
    <path d="M21660 4010 c0 -5 5 -10 10 -10 6 0 10 5 10 10 0 6 -4 10 -10 10 -5 0 -10 -4 -10 -10z"/>
    <path d="M23020 3930 c0 -5 5 -10 10 -10 6 0 10 5 10 10 0 6 -4 10 -10 10 -5 0 -10 -4 -10 -10z"/>
    <path d="M23120 3890 c0 -5 5 -10 10 -10 6 0 10 5 10 10 0 6 -4 10 -10 10 -5 0 -10 -4 -10 -10z"/>
    <path d="M23180 3870 c0 -5 9 -10 20 -10 11 0 20 5 20 10 0 6 -9 10 -20 10 -11 0 -20 -4 -20 -10z"/>
    <path d="M23600 3540 c0 -11 5 -20 10 -20 6 0 10 9 10 20 0 11 -4 20 -10 20 -5 0 -10 -9 -10 -20z"/>
    <path d="M23620 3490 c0 -5 5 -10 10 -10 6 0 10 5 10 10 0 6 -4 10 -10 10 -5 0 -10 -4 -10 -10z"/>
    <path d="M23120 3370 c0 -5 14 -10 30 -10 17 0 30 5 30 10 0 6 -13 10 -30 10 -16 0 -30 -4 -30 -10z"/>
    <path d="M12460 9130 c0 -6 -40 -10 -100 -10 -60 0 -100 -4 -100 -10 0 -5 -22 -10 -50 -10 -27 0 -50 -4 -50 -10 0 -5 -22 -10 -50 -10 -27 0 -50 -4 -50 -10 0 -5 -13 -10 -30 -10 -16 0 -30 -4 -30 -10 0 -5 -13 -10 -30 -10 -16 0 -30 -4 -30 -10 0 -5 -13 -10 -30 -10 -16 0 -30 -4 -30 -10 0 -5 -9 -10 -20 -10 -11 0 -20 -4 -20 -10 0 -5 -13 -10 -28 -10 -16 0 -34 -8 -42 -20 -8 -11 -22 -20 -32 -20 -10 0 -18 -4 -18 -10 0 -5 -8 -10 -18 -10 -10 0 -24 -9 -32 -20 -8 -11 -20 -20 -28 -20 -18 0 -42 -25 -42 -44 0 -9 -8 -16 -20 -16 -12 0 -20 -7 -20 -16 0 -9 -13 -29 -30 -44 -16 -15 -30 -34 -30 -42 0 -7 -9 -20 -20 -28 -11 -8 -20 -22 -20 -32 0 -10 -4 -18 -10 -18 -5 0 -10 -18 -10 -40 0 -22 -4 -40 -10 -40 -5 0 -10 -18 -10 -40 0 -22 -4 -40 -10 -40 -5 0 -10 -18 -10 -40 0 -22 -4 -40 -10 -40 -5 0 -10 -13 -10 -30 0 -16 -4 -30 -10 -30 -5 0 -10 -18 -10 -40 0 -22 -4 -40 -10 -40 -5 0 -10 -18 -10 -40 0 -22 -4 -40 -10 -40 -5 0 -10 -11 -10 -25 0 -26 -58 -95 -80 -95 -14 0 -100 -86 -100 -101 0 -6 -18 -28 -40 -49 -22 -21 -40 -45 -40 -52 0 -7 -9 -20 -20 -28 -11 -8 -20 -22 -20 -32 0 -10 -4 -18 -10 -18 -5 0 -10 -9 -10 -20 0 -11 -4 -20 -10 -20 -5 0 -10 -9 -10 -20 0 -11 -4 -20 -10 -20 -5 0 -10 -9 -10 -20 0 -11 -4 -20 -10 -20 -5 0 -10 -13 -10 -30 0 -16 -4 -30 -10 -30 -5 0 -10 -18 -10 -40 0 -22 -4 -40 -10 -40 -5 0 -10 -22 -10 -50 0 -27 -4 -50 -10 -50 -5 0 -10 -18 -10 -40 0 -22 -4 -40 -10 -40 -5 0 -10 -18 -10 -40 0 -22 -4 -40 -10 -40 -5 0 -10 -18 -10 -40 0 -22 -4 -40 -10 -40 -5 0 -10 -22 -10 -50 0 -27 -4 -50 -10 -50 -5 0 -10 -18 -10 -40 0 -22 -4 -40 -10 -40 -5 0 -10 -22 -10 -50 0 -27 -4 -50 -10 -50 -5 0 -10 -18 -10 -40 0 -22 -4 -40 -10 -40 -5 0 -10 -18 -10 -40 0 -22 -4 -40 -10 -40 -5 0 -10 -18 -10 -40 0 -22 -4 -40 -10 -40 -5 0 -10 -18 -10 -40 0 -22 -4 -40 -10 -40 -5 0 -10 -18 -10 -40 0 -22 -4 -40 -10 -40 -5 0 -10 -18 -10 -40 0 -22 -4 -40 -10 -40 -5 0 -10 -22 -10 -50 0 -27 -4 -50 -10 -50 -6 0 -10 -53 -10 -140 0 -87 4 -140 10 -140 6 0 10 -13 10 -30 0 -16 5 -30 10 -30 6 0 10 -13 10 -30 0 -16 5 -30 10 -30 6 0 10 -13 10 -30 0 -16 5 -30 10 -30 6 0 10 -9 10 -20 0 -11 5 -20 10 -20 6 0 10 -9 10 -20 0 -11 5 -20 10 -20 6 0 10 -9 10 -20 0 -11 5 -20 10 -20 6 0 10 -8 10 -18 0 -10 9 -24 20 -32 11 -8 20 -21 20 -28 0 -8 14 -27 30 -42 17 -15 30 -33 30 -40 0 -6 18 -29 40 -50 22 -21 40 -46 40 -54 0 -9 8 -16 20 -16 12 0 20 -7 20 -16 0 -20 24 -44 44 -44 9 0 16 -8 16 -20 0 -12 7 -20 16 -20 8 0 33 -18 54 -40 21 -22 44 -40 50 -40 7 0 25 -13 40 -30 15 -16 34 -30 42 -30 7 0 20 -9 28 -20 8 -11 21 -20 30 -20 9 0 22 -9 30 -20 8 -11 22 -20 32 -20 10 0 18 -4 18 -10 0 -5 9 -10 20 -10 11 0 20 -4 20 -10 0 -5 9 -10 20 -10 11 0 20 -4 20 -10 0 -5 8 -10 18 -10 10 0 24 -9 32 -20 8 -11 22 -20 32 -20 10 0 18 -4 18 -10 0 -5 9 -10 20 -10 11 0 20 -4 20 -10 0 -5 14 -10 30 -10 17 0 30 -4 30 -10 0 -5 9 -10 20 -10 11 0 20 -4 20 -10 0 -5 9 -10 20 -10 11 0 20 -4 20 -10 0 -5 14 -10 30 -10 17 0 30 -4 30 -10 0 -5 9 -10 20 -10 11 0 20 -4 20 -10 0 -5 14 -10 30 -10 17 0 30 -4 30 -10 0 -5 14 -10 30 -10 17 0 30 -4 30 -10 0 -5 18 -10 40 -10 22 0 40 -4 40 -10 0 -5 14 -10 30 -10 17 0 30 -4 30 -10 0 -5 18 -10 40 -10 22 0 40 -4 40 -10 0 -5 18 -10 40 -10 22 0 40 -4 40 -10 0 -5 23 -10 50 -10 28 0 50 -4 50 -10 0 -6 27 -10 60 -10 33 0 60 -4 60 -10 0 -6 30 -10 70 -10 40 0 70 -4 70 -10 0 -6 37 -10 90 -10 53 0 90 -4 90 -10 0 -6 73 -10 200 -10 127 0 200 4 200 10 0 6 30 10 70 10 40 0 70 4 70 10 0 6 27 10 60 10 33 0 60 4 60 10 0 6 23 10 50 10 28 0 50 5 50 10 0 6 18 10 40 10 22 0 40 5 40 10 0 6 14 10 30 10 17 0 30 5 30 10 0 6 14 10 30 10 17 0 30 5 30 10 0 6 9 10 20 10 11 0 20 5 20 10 0 6 9 10 20 10 11 0 20 5 20 10 0 6 9 10 20 10 11 0 20 5 20 10 0 6 9 10 20 10 11 0 20 5 20 10 0 6 9 10 20 10 11 0 20 5 20 10 0 6 9 10 20 10 11 0 20 5 20 10 0 6 7 10 16 10 8 0 33 18 54 40 21 22 43 40 49 40 16 0 201 187 201 203 0 7 9 19 20 27 11 8 20 22 20 32 0 10 5 18 10 18 6 0 10 14 10 30 0 17 5 30 10 30 6 0 10 9 10 20 0 11 5 20 10 20 6 0 10 18 10 40 0 22 5 40 10 40 6 0 10 18 10 40 0 22 5 40 10 40 6 0 10 23 10 50 0 28 5 50 10 50 6 0 10 27 10 60 0 33 4 60 10 60 6 0 10 27 10 60 0 33 4 60 10 60 6 0 10 23 10 50 0 28 5 50 10 50 6 0 10 27 10 60 0 33 4 60 10 60 6 0 10 23 10 50 0 28 5 50 10 50 6 0 10 27 10 60 0 33 4 60 10 60 6 0 10 23 10 50 0 28 5 50 10 50 6 0 10 30 10 70 0 40 4 70 10 70 6 0 10 23 10 50 0 28 5 50 10 50 6 0 10 27 10 60 0 33 4 60 10 60 6 0 10 40 10 100 0 60 -4 100 -10 100 -5 0 -10 23 -10 50 0 28 -4 50 -10 50 -5 0 -10 18 -10 40 0 22 -4 40 -10 40 -5 0 -10 18 -10 40 0 22 -4 40 -10 40 -5 0 -10 14 -10 30 0 17 -4 30 -10 30 -5 0 -10 9 -10 20 0 11 -4 20 -10 20 -5 0 -10 14 -10 30 0 17 -4 30 -10 30 -5 0 -10 9 -10 20 0 11 5 20 10 20 6 0 10 30 10 70 0 40 4 70 10 70 6 0 10 30 10 70 0 40 4 70 10 70 6 0 10 23 10 50 0 28 5 50 10 50 6 0 10 37 10 90 0 53 -4 90 -10 90 -5 0 -10 23 -10 50 0 28 -4 50 -10 50 -5 0 -10 14 -10 30 0 17 -4 30 -10 30 -5 0 -10 9 -10 20 0 11 -4 20 -10 20 -5 0 -10 9 -10 20 0 11 -4 20 -10 20 -5 0 -10 8 -10 18 0 10 -9 24 -20 32 -11 8 -20 20 -20 27 0 16 -265 283 -281 283 -6 0 -24 14 -39 30 -15 17 -34 30 -42 30 -7 0 -20 9 -28 20 -8 11 -22 20 -32 20 -10 0 -18 5 -18 10 0 6 -9 10 -20 10 -11 0 -20 5 -20 10 0 6 -8 10 -18 10 -10 0 -24 9 -32 20 -8 11 -22 20 -32 20 -10 0 -18 5 -18 10 0 6 -9 10 -20 10 -11 0 -20 5 -20 10 0 6 -13 10 -30 10 -16 0 -30 5 -30 10 0 6 -9 10 -20 10 -11 0 -20 5 -20 10 0 6 -9 10 -20 10 -11 0 -20 5 -20 10 0 6 -9 10 -20 10 -11 0 -20 5 -20 10 0 6 -13 10 -30 10 -16 0 -30 5 -30 10 0 6 -9 10 -20 10 -11 0 -20 5 -20 10 0 6 -13 10 -30 10 -16 0 -30 5 -30 10 0 6 -18 10 -40 10 -22 0 -40 5 -40 10 0 6 -13 10 -30 10 -16 0 -30 5 -30 10 0 6 -18 10 -40 10 -22 0 -40 5 -40 10 0 6 -18 10 -40 10 -22 0 -40 5 -40 10 0 6 -22 10 -50 10 -27 0 -50 5 -50 10 0 6 -30 10 -70 10 -40 0 -70 4 -70 10 0 6 -43 10 -110 10 -67 0 -110 4 -110 10 0 6 -57 10 -150 10 -93 0 -150 -4 -150 -10z m260 -40 c0 -6 50 -10 130 -10 80 0 130 -4 130 -10 0 -6 30 -10 70 -10 40 0 70 -4 70 -10 0 -6 27 -10 60 -10 33 0 60 -4 60 -10 0 -5 14 -10 30 -10 17 0 30 -4 30 -10 0 -5 18 -10 40 -10 22 0 40 -4 40 -10 0 -5 14 -10 30 -10 17 0 30 -4 30 -10 0 -5 14 -10 30 -10 17 0 30 -4 30 -10 0 -5 14 -10 30 -10 17 0 30 -4 30 -10 0 -5 14 -10 30 -10 17 0 30 -4 30 -10 0 -5 9 -10 20 -10 11 0 20 -4 20 -10 0 -5 14 -10 30 -10 17 0 30 -4 30 -10 0 -5 9 -10 20 -10 11 0 20 -4 20 -10 0 -5 14 -10 30 -10 17 0 30 -4 30 -10 0 -5 9 -10 20 -10 11 0 20 -4 20 -10 0 -5 8 -10 18 -10 10 0 24 -9 32 -20 8 -11 22 -20 32 -20 10 0 18 -4 18 -10 0 -5 9 -10 20 -10 11 0 20 -4 20 -10 0 -5 8 -10 18 -10 10 0 24 -9 32 -20 8 -11 21 -20 30 -20 9 0 22 -9 30 -20 8 -11 21 -20 28 -20 8 0 27 -13 42 -30 15 -16 33 -30 39 -30 16 0 221 -207 221 -223 0 -7 9 -19 20 -27 11 -8 20 -22 20 -32 0 -10 5 -18 10 -18 6 0 10 -9 10 -20 0 -11 5 -20 10 -20 6 0 10 -9 10 -20 0 -11 5 -20 10 -20 6 0 10 -9 10 -20 0 -11 5 -20 10 -20 6 0 10 -4 10 -10 0 -5 -9 -10 -20 -10 -11 0 -20 -4 -20 -10 0 -5 9 -10 20 -10 17 0 20 -7 20 -39 0 -22 5 -42 13 -44 9 -4 8 -8 -3 -17 -11 -9 -12 -13 -2 -17 15 -6 17 -163 2 -163 -6 0 -10 -27 -10 -60 0 -33 -4 -60 -10 -60 -5 0 -10 -18 -10 -40 0 -22 -4 -40 -10 -40 -5 0 -10 -9 -10 -20 0 -11 -4 -20 -10 -20 -5 0 -10 9 -10 20 0 11 -4 20 -10 20 -5 0 -10 8 -10 18 0 10 -9 24 -20 32 -11 8 -20 22 -20 32 0 10 -4 18 -10 18 -5 0 -10 7 -10 16 0 8 -18 33 -40 54 -22 21 -40 43 -40 49 0 15 -106 121 -120 121 -6 0 -33 23 -60 50 -27 28 -55 50 -62 50 -8 0 -20 9 -28 20 -8 11 -21 20 -30 20 -9 0 -22 9 -30 20 -8 11 -22 20 -32 20 -10 0 -18 5 -18 10 0 6 -9 10 -20 10 -11 0 -20 5 -20 10 0 6 -9 10 -20 10 -11 0 -20 5 -20 10 0 6 -8 10 -18 10 -10 0 -24 9 -32 20 -8 11 -22 20 -32 20 -10 0 -18 5 -18 10 0 6 -9 10 -20 10 -11 0 -20 5 -20 10 0 6 -9 10 -20 10 -11 0 -20 5 -20 10 0 6 -13 10 -30 10 -16 0 -30 5 -30 10 0 6 -9 10 -20 10 -11 0 -20 5 -20 10 0 6 -9 10 -20 10 -11 0 -20 5 -20 10 0 6 -13 10 -30 10 -16 0 -30 5 -30 10 0 6 -13 10 -30 10 -16 0 -30 5 -30 10 0 6 -13 10 -30 10 -16 0 -30 5 -30 10 0 6 -13 10 -30 10 -16 0 -30 5 -30 10 0 6 -13 10 -30 10 -16 0 -30 5 -30 10 0 6 -18 10 -40 10 -22 0 -40 5 -40 10 0 6 -18 10 -40 10 -22 0 -40 5 -40 10 0 6 -27 10 -60 10 -33 0 -60 4 -60 10 0 6 -18 10 -40 10 -22 0 -40 5 -40 10 0 6 -33 10 -80 10 -47 0 -80 4 -80 10 0 6 -53 10 -140 10 -87 0 -140 4 -140 10 0 6 -27 10 -60 10 -33 0 -60 -4 -60 -10 0 -14 -37 -12 -43 3 -4 9 -8 8 -17 -3 -9 -11 -13 -12 -17 -2 -2 6 -13 12 -24 12 -10 0 -19 5 -19 10 0 6 13 10 29 10 16 0 32 6 34 13 4 9 8 8 17 -3 9 -11 13 -12 17 -2 6 15 383 18 383 2 0 -6 33 -10 80 -10 47 0 80 -4 80 -10 0 -6 33 -10 80 -10 47 0 80 -4 80 -10 0 -5 18 -10 40 -10 22 0 40 -4 40 -10 0 -5 18 -10 40 -10 22 0 40 -4 40 -10 0 -5 18 -10 40 -10 22 0 40 -4 40 -10 0 -5 18 -10 40 -10 22 0 40 -4 40 -10 0 -5 14 -10 30 -10 l30 0 0 80 c0 47 -4 80 -10 80 -6 0 -10 -27 -10 -60 l0 -60 -30 0 -30 0 0 60 c0 33 -4 60 -10 60 -5 0 -10 -13 -10 -30 0 -16 -4 -30 -10 -30 -5 0 -10 -9 -10 -20 0 -13 -7 -20 -20 -20 -18 0 -20 7 -20 70 0 40 -4 70 -10 70 -5 0 -10 -21 -10 -46 0 -52 -16 -74 -54 -74 -24 0 -26 4 -26 40 0 22 5 40 10 40 6 0 10 18 10 40 0 22 5 40 10 40 6 0 10 23 10 50 0 28 5 50 10 50 6 0 10 23 10 50 0 43 3 50 20 50 11 0 20 3 20 6 0 11 -29 34 -44 34 -13 0 -16 -13 -16 -70 0 -40 -4 -70 -10 -70 -5 0 -10 -18 -10 -40 0 -22 -4 -40 -10 -40 -5 0 -10 -22 -10 -50 0 -27 -4 -50 -10 -50 -5 0 -10 -13 -10 -30 0 -23 -4 -30 -20 -30 -18 0 -20 7 -20 60 0 33 4 60 10 60 6 0 10 27 10 60 0 33 4 60 10 60 6 0 10 23 10 50 0 28 5 50 10 50 6 0 10 14 10 30 0 23 -4 30 -20 30 -18 0 -20 -7 -20 -60 0 -33 -4 -60 -10 -60 -5 0 -10 -22 -10 -50 0 -27 -4 -50 -10 -50 -6 0 -10 -27 -10 -60 0 -33 -4 -60 -10 -60 -5 0 -10 -9 -10 -20 0 -24 -25 -26 -48 -3 -12 12 -13 18 -4 21 7 2 12 21 12 43 0 21 5 39 10 39 6 0 10 30 10 70 0 40 4 70 10 70 6 0 10 18 10 40 0 22 5 40 10 40 6 0 10 9 10 20 0 13 -7 20 -20 20 -17 0 -20 -7 -20 -50 0 -27 -4 -50 -10 -50 -5 0 -10 -22 -10 -50 0 -27 -4 -50 -10 -50 -6 0 -10 -27 -10 -60 0 -33 -4 -60 -10 -60 -5 0 -10 -7 -10 -16 0 -8 -7 -22 -15 -30 -13 -14 -17 -14 -30 0 -17 17 -20 46 -5 46 6 0 10 23 10 50 0 28 5 50 10 50 6 0 10 30 10 70 0 40 4 70 10 70 6 0 10 14 10 30 0 17 5 30 10 30 6 0 10 9 10 20 0 15 -7 20 -29 20 -16 0 -32 6 -35 13 -5 10 -7 10 -12 0 -7 -15 -44 -17 -44 -3 0 6 -37 10 -90 10 -53 0 -90 4 -90 10 0 6 -9 10 -20 10 -11 0 -20 -4 -20 -10 0 -5 -9 -10 -20 -10 -11 0 -20 5 -20 10 0 6 -9 10 -20 10 -11 0 -20 -4 -20 -10 0 -5 -9 -10 -20 -10 -11 0 -20 5 -20 10 0 6 -13 10 -30 10 -16 0 -30 -4 -30 -10 0 -14 -37 -12 -44 3 -5 10 -7 10 -12 0 -3 -7 -18 -13 -34 -13 -16 0 -31 6 -34 13 -5 10 -7 10 -12 0 -7 -16 -124 -18 -124 -3 0 6 23 10 50 10 28 0 50 5 50 10 0 6 43 10 110 10 67 0 110 4 110 10 0 6 40 10 100 10 60 0 100 -4 100 -10z m-360 -110 c0 -22 -4 -40 -10 -40 -5 0 -10 -22 -10 -50 0 -27 -4 -50 -10 -50 -5 0 -10 -22 -10 -50 0 -27 -4 -50 -10 -50 -5 0 -10 -18 -10 -40 0 -33 -3 -40 -20 -40 -16 0 -20 7 -20 30 0 17 5 30 10 30 6 0 10 23 10 50 0 28 5 50 10 50 6 0 10 18 10 40 0 22 5 40 10 40 6 0 10 20 10 45 0 42 14 74 33 75 4 0 7 -18 7 -40z m80 0 c0 -22 -4 -40 -10 -40 -5 0 -10 -18 -10 -40 0 -22 -4 -40 -10 -40 -6 0 -10 -27 -10 -60 0 -33 -4 -60 -10 -60 -5 0 -10 -12 -10 -26 0 -23 -20 -54 -34 -54 -3 0 -6 18 -6 40 0 22 5 40 10 40 6 0 10 23 10 50 0 28 5 50 10 50 6 0 10 23 10 50 0 28 5 50 10 50 6 0 10 18 10 40 0 33 3 40 20 40 17 0 20 -7 20 -40z m80 0 c0 -22 -4 -40 -10 -40 -5 0 -10 -22 -10 -50 0 -27 -4 -50 -10 -50 -5 0 -10 -22 -10 -50 0 -27 -4 -50 -10 -50 -5 0 -10 -13 -10 -30 0 -23 -4 -30 -20 -30 -17 0 -20 7 -20 50 0 28 5 50 10 50 6 0 10 23 10 50 0 28 5 50 10 50 6 0 10 23 10 50 0 28 5 50 10 50 6 0 10 9 10 20 0 13 7 20 20 20 17 0 20 -7 20 -40z m80 -10 c0 -27 -4 -50 -10 -50 -5 0 -10 -18 -10 -40 0 -22 -4 -40 -10 -40 -5 0 -10 -22 -10 -50 0 -27 -4 -50 -10 -50 -5 0 -10 -12 -10 -26 0 -23 -20 -54 -34 -54 -3 0 -6 27 -6 60 0 33 4 60 10 60 6 0 10 18 10 40 0 22 5 40 10 40 6 0 10 23 10 50 0 28 5 50 10 50 6 0 10 14 10 30 0 23 4 30 20 30 17 0 20 -7 20 -50z m80 0 c0 -27 -4 -50 -10 -50 -5 0 -10 -18 -10 -40 0 -22 -4 -40 -10 -40 -6 0 -10 -32 -10 -76 0 -78 -11 -104 -44 -104 -13 0 -16 12 -16 60 0 33 4 60 10 60 6 0 10 23 10 50 0 28 5 50 10 50 6 0 10 23 10 50 0 28 5 50 10 50 6 0 10 9 10 20 0 13 7 20 20 20 17 0 20 -7 20 -50z m80 -20 c0 -40 -4 -70 -10 -70 -5 0 -10 -18 -10 -40 0 -22 -4 -40 -10 -40 -5 0 -10 -25 -10 -56 0 -57 -14 -84 -44 -84 -12 0 -16 10 -16 40 0 22 5 40 10 40 6 0 10 23 10 50 0 28 5 50 10 50 6 0 10 27 10 60 0 33 4 60 10 60 6 0 10 14 10 30 0 23 4 30 20 30 18 0 20 -7 20 -70z m87 54 c14 -13 14 -17 2 -25 -12 -8 -12 -11 1 -20 11 -8 12 -12 3 -16 -8 -2 -13 -22 -13 -44 0 -21 -4 -39 -10 -39 -5 0 -10 -18 -10 -40 0 -22 -4 -40 -10 -40 -6 0 -10 -27 -10 -60 l0 -60 -30 0 c-28 0 -30 2 -30 40 0 22 5 40 10 40 6 0 10 27 10 60 0 33 4 60 10 60 6 0 10 18 10 40 0 22 5 40 10 40 6 0 10 11 10 25 0 22 16 53 28 55 2 0 11 -7 19 -16z m-627 -44 c0 -22 -4 -40 -10 -40 -5 0 -10 -13 -10 -30 0 -16 -4 -30 -10 -30 -5 0 -10 -22 -10 -50 0 -27 -4 -50 -10 -50 -5 0 -10 -16 -10 -36 0 -19 -6 -42 -14 -50 -20 -19 -26 -18 -26 6 0 11 5 20 10 20 6 0 10 23 10 50 0 28 5 50 10 50 6 0 10 23 10 50 0 28 5 50 10 50 6 0 10 14 10 30 0 17 5 30 10 30 6 0 10 9 10 20 0 11 5 20 10 20 6 0 10 -18 10 -40z m80 20 c0 -11 -4 -20 -10 -20 -5 0 -10 -18 -10 -40 0 -22 -4 -40 -10 -40 -5 0 -10 -22 -10 -50 0 -27 -4 -50 -10 -50 -5 0 -10 -13 -10 -30 0 -16 -4 -30 -10 -30 -5 0 -10 -13 -10 -30 0 -16 -4 -30 -10 -30 -6 0 -10 27 -10 60 0 33 4 60 10 60 6 0 10 18 10 40 0 22 5 40 10 40 6 0 10 18 10 40 0 22 5 40 10 40 6 0 10 14 10 30 0 23 4 30 20 30 13 0 20 -7 20 -20z m640 -20 c0 -22 -4 -40 -10 -40 -5 0 -10 -22 -10 -50 0 -27 -4 -50 -10 -50 -5 0 -10 -18 -10 -40 0 -22 -4 -40 -10 -40 -5 0 -10 -22 -10 -50 0 -49 -1 -50 -30 -50 -27 0 -30 3 -30 30 0 17 5 30 10 30 6 0 10 27 10 60 0 33 4 60 10 60 6 0 10 27 10 60 0 33 4 60 10 60 6 0 10 14 10 30 0 27 3 30 30 30 28 0 30 -2 30 -40z m-780 10 c0 -5 -4 -10 -10 -10 -5 0 -10 -18 -10 -40 0 -22 -4 -40 -10 -40 -5 0 -10 -22 -10 -50 0 -27 -4 -50 -10 -50 -5 0 -10 -18 -10 -40 0 -22 -4 -40 -10 -40 -5 0 -10 -13 -10 -30 0 -16 -4 -30 -10 -30 -5 0 -10 23 -10 50 0 28 5 50 10 50 6 0 10 23 10 50 0 28 5 50 10 50 6 0 10 18 10 40 0 22 5 40 10 40 6 0 10 14 10 30 0 23 4 30 20 30 11 0 20 -4 20 -10z m-80 -40 c0 -16 -4 -30 -10 -30 -5 0 -10 -13 -10 -30 0 -16 -4 -30 -10 -30 -5 0 -10 -13 -10 -30 0 -16 -4 -30 -10 -30 -5 0 -10 14 -10 30 0 17 5 30 10 30 6 0 10 18 10 40 0 22 5 40 10 40 6 0 10 9 10 20 0 11 5 20 10 20 6 0 10 -13 10 -30z m-60 0 c0 -5 -4 -10 -10 -10 -5 0 -10 5 -10 10 0 6 5 10 10 10 6 0 10 -4 10 -10z m-20 -60 c0 -16 -4 -30 -10 -30 -5 0 -10 -13 -10 -30 0 -16 -4 -30 -10 -30 -5 0 -10 14 -10 30 0 17 5 30 10 30 6 0 10 14 10 30 0 17 5 30 10 30 6 0 10 -13 10 -30z m-40 -130 c0 -11 -4 -20 -10 -20 -5 0 -10 9 -10 20 0 11 5 20 10 20 6 0 10 -9 10 -20z m60 -30 c0 -16 -4 -30 -10 -30 -5 0 -10 14 -10 30 0 17 5 30 10 30 6 0 10 -13 10 -30z m-140 -70 c0 -11 -4 -20 -10 -20 -5 0 -10 9 -10 20 0 11 5 20 10 20 6 0 10 -9 10 -20z m60 0 c0 -11 -4 -20 -10 -20 -5 0 -10 9 -10 20 0 11 5 20 10 20 6 0 10 -9 10 -20z m60 10 c0 -5 -4 -10 -10 -10 -5 0 -10 5 -10 10 0 6 5 10 10 10 6 0 10 -4 10 -10z m200 -40 c0 -5 -4 -10 -10 -10 -5 0 -10 5 -10 10 0 6 5 10 10 10 6 0 10 -4 10 -10z m-140 -30 c0 -13 -7 -20 -20 -20 -13 0 -20 7 -20 20 0 13 7 20 20 20 13 0 20 -7 20 -20z m100 10 c0 -5 -13 -10 -30 -10 -16 0 -30 5 -30 10 0 6 14 10 30 10 17 0 30 -4 30 -10z"/>
    <path d="M13260 8900 c0 -33 -4 -60 -10 -60 -6 0 -10 -27 -10 -60 0 -33 4 -60 10 -60 6 0 10 23 10 50 0 28 5 50 10 50 6 0 10 23 10 50 0 49 1 50 30 50 29 0 30 -1 30 -50 0 -27 5 -50 10 -50 6 0 10 18 10 40 0 38 2 40 30 40 l30 0 0 -60 c0 -33 4 -60 10 -60 6 0 10 17 10 38 0 26 6 42 20 52 11 8 20 18 20 22 0 4 -9 8 -20 8 -11 0 -20 5 -20 10 0 6 -18 10 -40 10 -22 0 -40 5 -40 10 0 6 -18 10 -40 10 -22 0 -40 5 -40 10 0 6 -4 10 -10 10 -6 0 -10 -27 -10 -60z"/>
    <path d="M13500 8820 c0 -33 4 -60 10 -60 6 0 10 18 10 40 0 22 5 40 10 40 6 0 10 9 10 20 0 13 -7 20 -20 20 -18 0 -20 -7 -20 -60z"/>
    <path d="M13580 8810 c0 -27 5 -50 10 -50 6 0 10 14 10 30 0 17 5 30 10 30 6 0 10 9 10 20 0 13 -7 20 -20 20 -17 0 -20 -7 -20 -50z"/>
    <path d="M13660 8790 c0 -34 5 -37 26 -16 21 21 17 46 -6 46 -16 0 -20 -7 -20 -30z"/>
    <path d="M13320 8760 c0 -22 5 -40 10 -40 6 0 10 18 10 40 0 22 -4 40 -10 40 -5 0 -10 -18 -10 -40z"/>
    <path d="M13740 8770 c0 -34 5 -37 26 -15 14 13 14 17 0 30 -21 22 -26 19 -26 -15z"/>
    <path d="M13880 8700 c0 -24 6 -25 26 -6 19 20 18 26 -6 26 -13 0 -20 -7 -20 -20z"/>
    <path d="M13400 8690 c0 -5 5 -10 10 -10 6 0 10 5 10 10 0 6 -4 10 -10 10 -5 0 -10 -4 -10 -10z"/>
    <path d="M13480 8680 c0 -11 -4 -20 -10 -20 -6 0 -10 -29 -10 -68 0 -56 -3 -70 -20 -82 -11 -8 -20 -18 -20 -22 0 -4 9 -8 20 -8 11 0 20 -4 20 -10 0 -5 9 -10 20 -10 11 0 20 -4 20 -10 0 -5 18 -10 40 -10 22 0 40 -4 40 -10 0 -5 9 -10 20 -10 11 0 20 -4 20 -10 0 -5 9 -10 20 -10 11 0 20 -4 20 -10 0 -5 14 -10 30 -10 17 0 30 -4 30 -10 0 -5 9 -10 20 -10 11 0 20 -4 20 -10 0 -5 8 -10 18 -10 10 0 24 -9 32 -20 8 -11 22 -20 32 -20 10 0 18 -4 18 -10 0 -5 9 -10 20 -10 11 0 20 -4 20 -10 0 -5 5 -10 10 -10 16 0 12 30 -7 48 -12 12 -18 13 -21 4 -5 -17 -22 -15 -22 4 0 23 -25 44 -54 44 -14 0 -26 5 -26 10 0 6 -12 10 -26 10 -15 0 -35 10 -46 22 -16 18 -21 20 -28 8 -7 -11 -15 -7 -40 20 -24 26 -33 31 -40 20 -6 -10 -14 -6 -36 15 -18 18 -24 30 -16 33 8 2 12 25 12 63 0 33 4 59 10 59 6 0 10 18 10 40 0 22 -4 40 -10 40 -5 0 -10 -18 -10 -40 0 -22 -4 -40 -10 -40 -5 0 -10 -22 -10 -50 0 -27 -4 -50 -10 -50 -5 0 -10 -9 -10 -20 0 -13 -7 -20 -20 -20 -18 0 -20 7 -20 70 0 40 4 70 10 70 6 0 10 18 10 40 0 22 -4 40 -10 40 -5 0 -10 -9 -10 -20z"/>
    <path d="M13640 8660 c0 -22 5 -40 10 -40 6 0 10 18 10 40 0 22 -4 40 -10 40 -5 0 -10 -18 -10 -40z"/>
    <path d="M13960 8670 c0 -5 5 -10 10 -10 6 0 10 5 10 10 0 6 -4 10 -10 10 -5 0 -10 -4 -10 -10z"/>
    <path d="M14000 8630 c0 -5 9 -10 20 -10 11 0 20 5 20 10 0 6 -9 10 -20 10 -11 0 -20 -4 -20 -10z"/>
    <path d="M14060 8614 c0 -10 31 -36 37 -31 3 3 -2 13 -10 22 -16 15 -27 19 -27 9z"/>
    <path d="M13620 8560 c0 -11 5 -20 10 -20 6 0 10 9 10 20 0 11 -4 20 -10 20 -5 0 -10 -9 -10 -20z"/>
    <path d="M14140 8560 c0 -11 5 -20 10 -20 6 0 10 9 10 20 0 11 -4 20 -10 20 -5 0 -10 -9 -10 -20z"/>
    <path d="M14180 8534 c0 -10 31 -36 37 -31 3 3 -2 13 -10 22 -16 15 -27 19 -27 9z"/>
    <path d="M13620 8490 c0 -5 5 -10 10 -10 6 0 10 5 10 10 0 6 -4 10 -10 10 -5 0 -10 -4 -10 -10z"/>
    <path d="M13920 8470 c0 -5 5 -10 10 -10 6 0 10 5 10 10 0 6 -4 10 -10 10 -5 0 -10 -4 -10 -10z"/>
    <path d="M14240 8470 c0 -5 7 -10 16 -10 20 0 44 -24 44 -44 0 -9 5 -16 10 -16 18 0 10 31 -15 55 -24 25 -55 33 -55 15z"/>
    <path d="M13840 8440 c0 -11 5 -20 10 -20 6 0 10 9 10 20 0 11 -4 20 -10 20 -5 0 -10 -9 -10 -20z"/>
    <path d="M13840 8390 c0 -5 5 -10 10 -10 6 0 10 5 10 10 0 6 -4 10 -10 10 -5 0 -10 -4 -10 -10z"/>
    <path d="M14340 8390 c0 -5 5 -10 10 -10 6 0 10 5 10 10 0 6 -4 10 -10 10 -5 0 -10 -4 -10 -10z"/>
    <path d="M13900 8350 c0 -5 5 -10 10 -10 6 0 10 5 10 10 0 6 -4 10 -10 10 -5 0 -10 -4 -10 -10z"/>
    <path d="M14380 8352 c0 -4 9 -14 20 -22 11 -8 20 -22 20 -32 0 -10 5 -18 10 -18 18 0 10 31 -15 55 -25 26 -35 31 -35 17z"/>
    <path d="M13940 8264 c0 -19 24 -44 42 -44 8 0 20 -9 28 -20 8 -11 21 -20 28 -20 7 0 31 -18 52 -40 21 -22 46 -40 54 -40 9 0 16 -4 16 -10 0 -5 7 -10 16 -10 8 0 37 -22 64 -50 27 -27 56 -50 64 -50 9 0 16 -7 16 -16 0 -8 18 -33 40 -54 22 -21 40 -44 40 -50 0 -17 30 -44 38 -35 4 4 1 10 -5 12 -7 3 -13 12 -13 22 0 9 -9 23 -20 31 -11 8 -20 21 -20 28 0 8 -13 27 -30 42 -16 15 -30 35 -30 44 0 9 -8 16 -18 16 -10 0 -24 9 -32 20 -8 11 -22 20 -32 20 -11 0 -18 7 -18 20 0 16 -7 20 -30 20 -23 0 -30 4 -30 20 0 16 -7 20 -30 20 -21 0 -30 5 -30 16 0 19 -24 44 -42 44 -8 0 -20 9 -28 20 -8 11 -21 20 -30 20 -9 0 -22 9 -30 20 -17 24 -30 26 -30 4z"/>
    <path d="M14460 8250 c0 -5 5 -10 10 -10 6 0 10 5 10 10 0 6 -4 10 -10 10 -5 0 -10 -4 -10 -10z"/>
    <path d="M14480 8210 c0 -5 5 -10 10 -10 6 0 10 -9 10 -20 0 -11 5 -20 10 -20 15 0 12 29 -4 46 -17 16 -26 18 -26 4z"/>
    <path d="M14440 7790 c0 -5 5 -10 10 -10 6 0 10 5 10 10 0 6 -4 10 -10 10 -5 0 -10 -4 -10 -10z"/>
    <path d="M14480 7710 c0 -5 5 -10 10 -10 6 0 10 5 10 10 0 6 -4 10 -10 10 -5 0 -10 -4 -10 -10z"/>
    <path d="M17180 8050 c0 -5 14 -10 30 -10 17 0 30 5 30 10 0 6 -13 10 -30 10 -16 0 -30 -4 -30 -10z"/>
    <path d="M17540 7990 c0 -5 5 -10 10 -10 6 0 10 5 10 10 0 6 -4 10 -10 10 -5 0 -10 -4 -10 -10z"/>
    <path d="M17640 7970 c0 -5 14 -10 30 -10 17 0 30 5 30 10 0 6 -13 10 -30 10 -16 0 -30 -4 -30 -10z"/>
    <path d="M17760 7950 c0 -5 9 -10 20 -10 11 0 20 5 20 10 0 6 -9 10 -20 10 -11 0 -20 -4 -20 -10z"/>
    <path d="M17880 7930 c0 -5 9 -10 20 -10 11 0 20 5 20 10 0 6 -9 10 -20 10 -11 0 -20 -4 -20 -10z"/>
    <path d="M17980 7910 c0 -5 9 -10 20 -10 11 0 20 5 20 10 0 6 -9 10 -20 10 -11 0 -20 -4 -20 -10z"/>
    <path d="M18180 7870 c0 -5 5 -10 10 -10 6 0 10 5 10 10 0 6 -4 10 -10 10 -5 0 -10 -4 -10 -10z"/>
    <path d="M18560 7850 c0 -5 18 -10 40 -10 22 0 40 5 40 10 0 6 -18 10 -40 10 -22 0 -40 -4 -40 -10z"/>
    <path d="M18720 7480 c0 -11 5 -20 10 -20 6 0 10 9 10 20 0 11 -4 20 -10 20 -5 0 -10 -9 -10 -20z"/>
    <path d="M18680 7110 c0 -5 5 -10 10 -10 6 0 10 5 10 10 0 6 -4 10 -10 10 -5 0 -10 -4 -10 -10z"/>
    <path d="M18660 6910 c0 -5 5 -10 10 -10 6 0 10 5 10 10 0 6 -4 10 -10 10 -5 0 -10 -4 -10 -10z"/>
    <path d="M0 6460 l0 -200 60 0 c33 0 60 -4 60 -10 0 -5 9 -10 20 -10 11 0 20 -4 20 -10 0 -5 18 -10 40 -10 22 0 40 -4 40 -10 0 -5 18 -10 40 -10 22 0 40 -4 40 -10 0 -5 14 -10 30 -10 17 0 30 -4 30 -10 0 -5 14 -10 30 -10 17 0 30 -4 30 -10 0 -5 18 -10 40 -10 22 0 40 -4 40 -10 0 -5 18 -10 40 -10 22 0 40 -4 40 -10 0 -5 9 -10 20 -10 11 0 20 -4 20 -10 0 -5 18 -10 40 -10 22 0 40 -4 40 -10 0 -5 14 -10 30 -10 17 0 30 -4 30 -10 0 -5 18 -10 40 -10 22 0 40 -4 40 -10 0 -5 14 -10 30 -10 17 0 30 -4 30 -10 0 -5 14 -10 30 -10 17 0 30 -4 30 -10 0 -5 23 -10 50 -10 28 0 50 -4 50 -10 0 -5 14 -10 30 -10 17 0 30 -4 30 -10 0 -5 18 -10 40 -10 22 0 40 -4 40 -10 0 -5 14 -10 30 -10 17 0 30 -4 30 -10 0 -5 14 -10 30 -10 17 0 30 -4 30 -10 0 -5 14 -10 30 -10 17 0 30 -4 30 -10 0 -5 23 -10 50 -10 28 0 50 -4 50 -10 0 -5 9 -10 20 -10 11 0 20 -4 20 -10 0 -5 18 -10 40 -10 22 0 40 -4 40 -10 0 -5 14 -10 30 -10 17 0 30 -4 30 -10 0 -5 14 -10 30 -10 17 0 30 -4 30 -10 0 -5 14 -10 30 -10 17 0 30 -4 30 -10 0 -5 14 -10 30 -10 17 0 30 -4 30 -10 0 -5 14 -10 30 -10 17 0 30 -4 30 -10 0 -5 18 -10 40 -10 22 0 40 -4 40 -10 0 -5 18 -10 40 -10 22 0 40 -4 40 -10 0 -5 18 -10 40 -10 22 0 40 -4 40 -10 0 -5 14 -10 30 -10 17 0 30 -4 30 -10 0 -5 9 -10 20 -10 11 0 20 -4 20 -10 0 -5 18 -10 40 -10 22 0 40 -4 40 -10 0 -5 14 -10 30 -10 17 0 30 -4 30 -10 0 -5 14 -10 30 -10 17 0 30 -4 30 -10 0 -5 18 -10 40 -10 22 0 40 -4 40 -10 0 -5 14 -10 30 -10 17 0 30 -4 30 -10 0 -5 23 -10 50 -10 28 0 50 -4 50 -10 0 -6 27 -10 60 -10 33 0 60 -4 60 -10 0 -6 30 -10 70 -10 40 0 70 -4 70 -10 0 -6 27 -10 60 -10 33 0 60 -4 60 -10 0 -6 30 -10 70 -10 40 0 70 -4 70 -10 0 -6 27 -10 60 -10 33 0 60 -4 60 -10 0 -6 30 -10 70 -10 40 0 70 -4 70 -10 0 -6 30 -10 70 -10 40 0 70 -4 70 -10 0 -6 33 -10 80 -10 47 0 80 -4 80 -10 0 -6 27 -10 60 -10 33 0 60 -4 60 -10 0 -6 37 -10 90 -10 53 0 90 -4 90 -10 0 -6 30 -10 70 -10 40 0 70 -4 70 -10 0 -6 37 -10 90 -10 53 0 90 -4 90 -10 0 -6 33 -10 80 -10 47 0 80 -4 80 -10 0 -6 40 -10 100 -10 60 0 100 -4 100 -10 0 -6 33 -10 80 -10 47 0 80 -4 80 -10 0 -6 40 -10 100 -10 60 0 100 -4 100 -10 0 -6 40 -10 100 -10 60 0 100 -4 100 -10 0 -6 53 -10 140 -10 87 0 140 -4 140 -10 0 -6 97 -10 270 -10 149 0 270 3 270 6 0 11 -29 34 -44 34 -9 0 -16 5 -16 10 0 6 -13 10 -30 10 -16 0 -30 5 -30 10 0 6 -13 10 -30 10 -16 0 -30 5 -30 10 0 6 -18 10 -40 10 -22 0 -40 5 -40 10 0 6 -18 10 -40 10 -22 0 -40 5 -40 10 0 6 -13 10 -30 10 -16 0 -30 5 -30 10 0 6 -13 10 -30 10 -16 0 -30 5 -30 10 0 6 -18 10 -40 10 -22 0 -40 5 -40 10 0 6 -18 10 -40 10 -22 0 -40 5 -40 10 0 6 -13 10 -30 10 -16 0 -30 5 -30 10 0 6 -13 10 -30 10 -16 0 -30 5 -30 10 0 6 -18 10 -40 10 -22 0 -40 5 -40 10 0 6 -18 10 -40 10 -22 0 -40 5 -40 10 0 6 -13 10 -30 10 -16 0 -30 5 -30 10 0 6 -13 10 -30 10 -16 0 -30 5 -30 10 0 6 -13 10 -30 10 -16 0 -30 5 -30 10 0 6 -13 10 -30 10 -16 0 -30 5 -30 10 0 6 -18 10 -40 10 -22 0 -40 5 -40 10 0 6 -13 10 -30 10 -16 0 -30 5 -30 10 0 6 -18 10 -40 10 -22 0 -40 5 -40 10 0 6 -13 10 -30 10 -16 0 -30 5 -30 10 0 6 -18 10 -40 10 -22 0 -40 5 -40 10 0 6 -13 10 -30 10 -16 0 -30 5 -30 10 0 6 -18 10 -40 10 -22 0 -40 5 -40 10 0 6 -13 10 -30 10 -16 0 -30 5 -30 10 0 6 -18 10 -40 10 -22 0 -40 5 -40 10 0 6 -18 10 -40 10 -22 0 -40 5 -40 10 0 6 -18 10 -40 10 -22 0 -40 5 -40 10 0 6 -9 10 -20 10 -11 0 -20 5 -20 10 0 6 -22 10 -50 10 -27 0 -50 5 -50 10 0 6 -13 10 -30 10 -16 0 -30 5 -30 10 0 6 -18 10 -40 10 -22 0 -40 5 -40 10 0 6 -13 10 -30 10 -16 0 -30 5 -30 10 0 6 -18 10 -40 10 -22 0 -40 5 -40 10 0 6 -13 10 -30 10 -16 0 -30 5 -30 10 0 6 -18 10 -40 10 -22 0 -40 5 -40 10 0 6 -13 10 -30 10 -16 0 -30 5 -30 10 0 6 -18 10 -40 10 -22 0 -40 5 -40 10 0 6 -13 10 -30 10 -16 0 -30 5 -30 10 0 6 -13 10 -30 10 -16 0 -30 5 -30 10 0 6 -22 10 -50 10 -27 0 -50 5 -50 10 0 6 -13 10 -30 10 -16 0 -30 5 -30 10 0 6 -13 10 -30 10 -16 0 -30 5 -30 10 0 6 -18 10 -40 10 -22 0 -40 5 -40 10 0 6 -22 10 -50 10 -27 0 -50 5 -50 10 0 6 -18 10 -40 10 -22 0 -40 5 -40 10 0 6 -18 10 -40 10 -22 0 -40 5 -40 10 0 6 -18 10 -40 10 -22 0 -40 5 -40 10 0 6 -27 10 -60 10 -33 0 -60 4 -60 10 0 6 -18 10 -40 10 -22 0 -40 5 -40 10 0 6 -22 10 -50 10 -27 0 -50 5 -50 10 0 6 -27 10 -60 10 -33 0 -60 4 -60 10 0 6 -22 10 -50 10 -27 0 -50 5 -50 10 0 6 -22 10 -50 10 -27 0 -50 5 -50 10 0 6 -33 10 -80 10 -47 0 -80 4 -80 10 0 6 -27 10 -60 10 -33 0 -60 4 -60 10 0 6 -27 10 -60 10 -33 0 -60 4 -60 10 0 6 -27 10 -60 10 -33 0 -60 4 -60 10 0 6 -18 10 -40 10 -22 0 -40 5 -40 10 0 6 -13 10 -30 10 -16 0 -30 5 -30 10 0 6 -22 10 -50 10 -27 0 -50 5 -50 10 0 6 -27 10 -60 10 -33 0 -60 4 -60 10 0 6 -18 10 -40 10 -22 0 -40 5 -40 10 0 6 -18 10 -40 10 -22 0 -40 5 -40 10 0 6 -22 10 -50 10 -27 0 -50 5 -50 10 0 6 -22 10 -50 10 -27 0 -50 5 -50 10 0 6 -13 10 -30 10 -16 0 -30 5 -30 10 0 15 97 13 103 -2 4 -10 8 -9 17 2 9 11 13 12 17 3 3 -9 36 -13 114 -13 66 0 109 -4 109 -10 0 -6 30 -10 70 -10 40 0 70 -4 70 -10 0 -6 33 -10 80 -10 47 0 80 4 80 10 0 6 -13 10 -30 10 -16 0 -30 5 -30 10 0 6 -27 10 -60 10 -33 0 -60 4 -60 10 0 6 -30 10 -70 10 -40 0 -70 4 -70 10 0 6 -27 10 -60 10 -33 0 -60 4 -60 10 0 6 -30 10 -70 10 -40 0 -70 4 -70 10 0 6 -27 10 -60 10 -33 0 -60 4 -60 10 0 6 -30 10 -70 10 -40 0 -70 4 -70 10 0 6 -33 10 -80 10 -47 0 -80 4 -80 10 0 6 -37 10 -90 10 -53 0 -90 4 -90 10 0 6 -33 10 -80 10 -47 0 -80 4 -80 10 0 6 -30 10 -70 10 l-70 0 0 -200z"/>
    <path d="M18600 6390 c0 -5 5 -10 10 -10 6 0 10 5 10 10 0 6 -4 10 -10 10 -5 0 -10 -4 -10 -10z"/>
    <path d="M18600 6350 c0 -5 5 -10 10 -10 6 0 10 5 10 10 0 6 -4 10 -10 10 -5 0 -10 -4 -10 -10z"/>
    <path d="M18560 5950 c0 -5 5 -10 10 -10 6 0 10 5 10 10 0 6 -4 10 -10 10 -5 0 -10 -4 -10 -10z"/>
    <path d="M18500 5410 c0 -5 5 -10 10 -10 6 0 10 5 10 10 0 6 -4 10 -10 10 -5 0 -10 -4 -10 -10z"/>
    <path d="M18480 5230 c0 -5 5 -10 10 -10 6 0 10 5 10 10 0 6 -4 10 -10 10 -5 0 -10 -4 -10 -10z"/>
    <path d="M16780 5130 c0 -5 5 -10 10 -10 6 0 10 5 10 10 0 6 -4 10 -10 10 -5 0 -10 -4 -10 -10z"/>
    <path d="M16900 5110 c0 -5 5 -10 10 -10 6 0 10 5 10 10 0 6 -4 10 -10 10 -5 0 -10 -4 -10 -10z"/>
    <path d="M17080 5070 c0 -5 18 -10 40 -10 22 0 40 5 40 10 0 6 -18 10 -40 10 -22 0 -40 -4 -40 -10z"/>
    <path d="M17180 5050 c0 -5 18 -10 40 -10 22 0 40 5 40 10 0 6 -18 10 -40 10 -22 0 -40 -4 -40 -10z"/>
    <path d="M17300 5030 c0 -5 14 -10 30 -10 17 0 30 5 30 10 0 6 -13 10 -30 10 -16 0 -30 -4 -30 -10z"/>
    <path d="M17380 5010 c0 -5 18 -10 40 -10 22 0 40 5 40 10 0 6 -18 10 -40 10 -22 0 -40 -4 -40 -10z"/>
    <path d="M17500 4990 c0 -5 18 -10 40 -10 22 0 40 5 40 10 0 6 -18 10 -40 10 -22 0 -40 -4 -40 -10z"/>
    <path d="M17620 4970 c0 -5 14 -10 30 -10 17 0 30 5 30 10 0 6 -13 10 -30 10 -16 0 -30 -4 -30 -10z"/>
    <path d="M17720 4950 c0 -5 18 -10 40 -10 22 0 40 5 40 10 0 6 -18 10 -40 10 -22 0 -40 -4 -40 -10z"/>
    <path d="M17860 4930 c0 -5 5 -10 10 -10 6 0 10 5 10 10 0 6 -4 10 -10 10 -5 0 -10 -4 -10 -10z"/>
    <path d="M17940 4910 c0 -5 5 -10 10 -10 6 0 10 5 10 10 0 6 -4 10 -10 10 -5 0 -10 -4 -10 -10z"/>
    <path d="M18040 4890 c0 -5 9 -10 20 -10 11 0 20 5 20 10 0 6 -9 10 -20 10 -11 0 -20 -4 -20 -10z"/>
    <path d="M18140 4870 c0 -5 14 -10 30 -10 17 0 30 5 30 10 0 6 -13 10 -30 10 -16 0 -30 -4 -30 -10z"/>
    <path d="M18240 4850 c0 -5 5 -10 10 -10 6 0 10 5 10 10 0 6 -4 10 -10 10 -5 0 -10 -4 -10 -10z"/>
    <path d="M18280 4850 c0 -5 5 -10 10 -10 6 0 10 5 10 10 0 6 -4 10 -10 10 -5 0 -10 -4 -10 -10z"/>
  </g>
</svg>